<svg width="24" height="24" viewBox="0 0 24 24" fill="none" xmlns="http://www.w3.org/2000/svg">
<path d="M9.333 20.9353C5.3325 20.4793 3 17.7043 3 14.9998V14.2498C3 13.6531 3.23705 13.0808 3.65901 12.6588C4.08097 12.2369 4.65326 11.9998 5.25 11.9998H8.4C8.15469 12.4793 7.95723 12.9817 7.8105 13.4998H5.25C5.05109 13.4998 4.86032 13.5789 4.71967 13.7195C4.57902 13.8602 4.5 14.0509 4.5 14.2498V14.9998C4.5 16.6918 5.823 18.4993 8.253 19.1998C8.541 19.8238 8.9055 20.4058 9.333 20.9353ZM14.439 7.60334C14.6846 6.81527 14.6881 5.97164 14.4491 5.18155C14.2101 4.39146 13.7395 3.69125 13.0983 3.17147C12.457 2.65169 11.6746 2.33626 10.8521 2.26596C10.0297 2.19567 9.20503 2.37374 8.48487 2.77715C7.76471 3.18056 7.18214 3.79076 6.81251 4.52883C6.44288 5.2669 6.30318 6.09889 6.41149 6.91721C6.51979 7.73553 6.87112 8.50253 7.42003 9.11903C7.96894 9.73553 8.69019 10.1732 9.4905 10.3753C9.96388 9.82463 10.5075 9.33848 11.1075 8.92934C10.4916 9.07654 9.84317 8.99612 9.28187 8.70289C8.72056 8.40966 8.28418 7.92339 8.05318 7.33374C7.82219 6.74409 7.81214 6.09081 8.0249 5.49434C8.23766 4.89786 8.65888 4.39841 9.21091 4.08806C9.76293 3.77771 10.4085 3.67739 11.0287 3.80559C11.6489 3.93379 12.2018 4.28187 12.5855 4.78565C12.9693 5.28943 13.1579 5.91496 13.1168 6.5469C13.0756 7.17885 12.8074 7.7746 12.3615 8.22434C13.0234 7.92618 13.722 7.71735 14.439 7.60334ZM15.75 22.4998C16.6364 22.4998 17.5142 22.3252 18.3331 21.986C19.1521 21.6468 19.8962 21.1496 20.523 20.5228C21.1498 19.896 21.647 19.1519 21.9862 18.333C22.3254 17.514 22.5 16.6363 22.5 15.7498C22.5 14.8634 22.3254 13.9857 21.9862 13.1667C21.647 12.3478 21.1498 11.6037 20.523 10.9769C19.8962 10.3501 19.1521 9.85287 18.3331 9.51365C17.5142 9.17443 16.6364 8.99984 15.75 8.99984C13.9598 8.99984 12.2429 9.711 10.977 10.9769C9.71116 12.2427 9 13.9596 9 15.7498C9 17.54 9.71116 19.2569 10.977 20.5228C12.2429 21.7887 13.9598 22.4998 15.75 22.4998ZM15.75 11.9998C15.9489 11.9998 16.1397 12.0789 16.2803 12.2195C16.421 12.3602 16.5 12.5509 16.5 12.7498V14.9998H18.75C18.9489 14.9998 19.1397 15.0789 19.2803 15.2195C19.421 15.3602 19.5 15.5509 19.5 15.7498C19.5 15.9488 19.421 16.1395 19.2803 16.2802C19.1397 16.4208 18.9489 16.4998 18.75 16.4998H16.5V18.7498C16.5 18.9488 16.421 19.1395 16.2803 19.2802C16.1397 19.4208 15.9489 19.4998 15.75 19.4998C15.5511 19.4998 15.3603 19.4208 15.2197 19.2802C15.079 19.1395 15 18.9488 15 18.7498V16.4998H12.75C12.5511 16.4998 12.3603 16.4208 12.2197 16.2802C12.079 16.1395 12 15.9488 12 15.7498C12 15.5509 12.079 15.3602 12.2197 15.2195C12.3603 15.0789 12.5511 14.9998 12.75 14.9998H15V12.7498C15 12.5509 15.079 12.3602 15.2197 12.2195C15.3603 12.0789 15.5511 11.9998 15.75 11.9998Z" fill="#333333"/>
</svg>
