<svg width="175" height="175" viewBox="0 0 175 175" fill="none" xmlns="http://www.w3.org/2000/svg">
<g opacity="0.6" clip-path="url(#clip0_785_2833)">
<path fill-rule="evenodd" clip-rule="evenodd" d="M170.894 127.192C175.89 142.84 121.117 162.58 71.2633 163.273C21.4096 163.967 -5.64212 139.137 15.0438 120.141C35.7297 101.144 165.899 111.545 170.894 127.192Z" fill="white" fill-opacity="0.4"/>
<path d="M153.921 147.507L153.921 129.783C153.921 129.783 160.361 142.349 153.921 147.507Z" fill="#F1F1F1"/>
<path d="M154.319 147.504L142.146 135.518C142.146 135.518 155.131 138.928 154.319 147.504Z" fill="#F1F1F1"/>
<path d="M165.602 147.693L78.5707 147.693C78.5101 147.693 78.452 147.667 78.4092 147.621C78.3664 147.575 78.3423 147.513 78.3423 147.448C78.3423 147.383 78.3664 147.321 78.4092 147.275C78.452 147.229 78.5101 147.203 78.5707 147.203L165.602 147.203C165.663 147.203 165.721 147.229 165.764 147.275C165.807 147.321 165.831 147.383 165.831 147.448C165.831 147.513 165.807 147.575 165.764 147.621C165.721 147.667 165.663 147.693 165.602 147.693Z" fill="#CBCBCB"/>
</g>
<path d="M75.9685 33.2712H75.1313V12.1971C75.1313 8.96225 73.733 5.85986 71.2438 3.57246C68.7547 1.28505 65.3787 2.05563e-06 61.8586 0H13.2728C11.5298 -3.73201e-06 9.80384 0.31548 8.19351 0.92844C6.58319 1.5414 5.12001 2.43983 3.88752 3.57244C2.65503 4.70504 1.67736 6.04964 1.01034 7.52946C0.343317 9.00928 2.95357e-06 10.5953 0 12.1971V127.811C-2.9825e-06 131.046 1.39837 134.149 3.88749 136.436C6.37661 138.723 9.75259 140.008 13.2727 140.008H61.8585C65.3787 140.009 68.7547 138.723 71.2438 136.436C73.7329 134.149 75.1313 131.046 75.1313 127.811V48.2722H75.9685V33.2712Z" fill="#3F3D56"/>
<path d="M63.9797 3.31397H57.4593C57.7591 3.96969 57.8736 4.68111 57.7926 5.38557C57.7116 6.09004 57.4376 6.76592 56.9947 7.35368C56.5519 7.94144 55.9537 8.42304 55.253 8.75606C54.5524 9.08907 53.7706 9.26327 52.9766 9.26333H24.3597C23.5657 9.26327 22.7839 9.08907 22.0833 8.75606C21.3826 8.42304 20.7844 7.94144 20.3416 7.35368C19.8987 6.76592 19.6247 6.09003 19.5437 5.38557C19.4627 4.6811 19.5771 3.96968 19.877 3.31396H13.7869C12.4487 3.31396 11.1235 3.54907 9.8871 4.00586C8.65071 4.46265 7.52729 5.13217 6.58099 5.97621C5.63469 6.82025 4.88405 7.82227 4.37192 8.92506C3.85978 10.0279 3.59619 11.2098 3.59619 12.4035V127.605C3.59619 128.799 3.85978 129.981 4.37191 131.084C4.88404 132.187 5.63468 133.189 6.58097 134.033C7.52727 134.877 8.65069 135.546 9.88708 136.003C11.1235 136.46 12.4486 136.695 13.7869 136.695H63.9797C66.6825 136.695 69.2745 135.737 71.1856 134.033C73.0968 132.328 74.1704 130.016 74.1704 127.605V12.4035C74.1704 11.2098 73.9068 10.0279 73.3947 8.92508C72.8826 7.82229 72.1319 6.82027 71.1856 5.97623C70.2393 5.13219 69.1159 4.46266 67.8795 4.00587C66.6431 3.54908 65.318 3.31397 63.9797 3.31397Z" fill="white"/>
<path d="M39.1077 86.9876C51.5208 86.9876 61.5836 77.7148 61.5836 66.2763C61.5836 54.8377 51.5208 45.5649 39.1077 45.5649C26.6946 45.5649 16.6318 54.8377 16.6318 66.2763C16.6318 77.7148 26.6946 86.9876 39.1077 86.9876Z" fill="#636BC1"/>
<path d="M45.4714 67.4315L40.0252 72.9575C39.9067 73.0752 39.7651 73.1678 39.609 73.2297C39.453 73.2916 39.2857 73.3216 39.1175 73.3177H39.0994C38.9308 73.3214 38.7633 73.2913 38.6068 73.2294C38.4503 73.1675 38.3082 73.075 38.1891 72.9575L32.7455 67.4315C32.7274 67.411 32.7067 67.3931 32.6884 67.3753C32.4712 67.1457 32.3552 66.8406 32.3659 66.5269C32.3766 66.2132 32.5131 65.9165 32.7455 65.7019C32.9941 65.4717 33.3225 65.3436 33.6636 65.3436C34.0048 65.3436 34.3331 65.4717 34.5817 65.7019L37.8079 69.0231V60.4594C37.8229 60.1295 37.9665 59.8181 38.2088 59.5899C38.451 59.3617 38.7733 59.2344 39.1085 59.2344C39.4436 59.2344 39.7659 59.3617 40.0082 59.5899C40.2504 59.8181 40.394 60.1295 40.409 60.4594V69.0231L43.6327 65.7019C43.8818 65.4717 44.2105 65.3435 44.5521 65.3435C44.8936 65.3435 45.2223 65.4717 45.4714 65.7019C45.4896 65.7197 45.5077 65.7376 45.5285 65.7581C45.7452 65.9879 45.8608 66.2929 45.8501 66.6064C45.8394 66.9199 45.7032 67.2165 45.4714 67.4315Z" fill="white"/>
<path d="M137.632 142.648L134.831 142.648L133.499 131.062L137.632 131.062L137.632 142.648Z" fill="#FBC5A9"/>
<path d="M138.346 145.56L129.316 145.56V145.437C129.316 144.437 129.687 143.479 130.346 142.772C131.005 142.065 131.899 141.668 132.831 141.667L138.347 141.668L138.346 145.56Z" fill="#191847"/>
<path d="M116.357 142.55L113.651 141.774L115.154 130.211L119.147 131.357L116.357 142.55Z" fill="#FBC5A9"/>
<path d="M116.346 145.56L107.622 143.058L107.652 142.94C107.892 141.974 108.481 141.15 109.288 140.65C110.095 140.149 111.054 140.013 111.955 140.271L117.283 141.8L116.346 145.56Z" fill="#191847"/>
<path d="M139.243 77.7173L141.589 80.6403L138.555 140.042H132.075L128.808 94.3345L118.678 141.268L111.941 139.495L118.066 79.8842L139.243 77.7173Z" fill="#191847"/>
<path d="M119.633 39.3667L126.085 35.8955L136.007 36.0826L144.546 40.769L139.688 66.7926L141.787 80.3613C133.675 82.5799 125.184 82.6549 117.04 80.5798L116.975 80.5632C116.975 80.5632 121.798 62.2078 119.744 56.6063L119.633 39.3667Z" fill="#636BC1"/>
<path d="M138.299 25.4975C138.292 23.4205 137.516 21.4314 136.143 19.9668C134.77 18.5021 132.911 17.6817 130.975 17.6856C129.039 17.6894 127.183 18.5172 125.815 19.9872C124.447 21.4573 123.678 23.4495 123.678 25.5265C123.678 27.6036 124.447 29.5957 125.815 31.0658C127.183 32.5358 129.039 33.3636 130.975 33.3675C132.911 33.3713 134.77 32.5509 136.143 31.0863C137.516 29.6217 138.292 27.6326 138.299 25.5555C138.299 25.5362 138.299 25.5169 138.299 25.4975Z" fill="#FBC5A9"/>
<path d="M127.715 21.0167C128.094 20.6344 128.592 20.4186 129.112 20.4121C129.893 20.3849 131.064 20.6824 131.562 21.3634C131.962 21.9107 131.981 22.6638 131.983 23.3594L131.987 25.2793C131.988 25.8473 131.995 26.4395 132.235 26.9455C132.476 27.4515 133.028 27.8358 133.533 27.6633C134.131 27.4587 134.394 26.6055 135.006 26.452C135.465 26.3368 135.937 26.6969 136.138 27.1548C136.308 27.6294 136.364 28.142 136.301 28.6459C136.244 29.6512 134.899 30.05 134.709 31.0363C134.599 31.6068 134.213 32.7449 134.709 32.5063C136.993 32.2613 137.996 30.8302 139.041 29.4831L141.399 26.4447C141.669 26.143 141.876 25.7838 142.007 25.3906C142.065 25.1151 142.086 24.8319 142.069 24.55C142.056 23.7948 142.037 23.0398 142.012 22.285C141.99 21.6255 141.835 20.7935 141.233 20.658C140.92 20.5875 140.505 20.7104 140.34 20.4167C140.277 20.2694 140.267 20.103 140.311 19.9484C140.444 19.1947 140.668 18.4063 140.437 17.6805C140.088 16.5857 138.887 16.1365 137.826 15.93C136.765 15.7234 135.573 15.5457 134.907 14.6358C134.729 14.3337 134.535 14.0421 134.328 13.7624C134.022 13.4644 133.647 13.2613 133.242 13.1748C131.924 12.8172 130.533 12.9497 129.294 13.5506C128.781 13.8018 128.265 14.1402 127.702 14.1019C127.117 14.0622 126.618 13.6206 126.04 13.5132C125.107 13.3396 124.215 14.0892 123.756 14.977C123.186 16.077 123.134 17.5834 123.938 18.499C124.34 18.9558 124.939 19.2696 125.106 19.8713C125.173 20.1163 125.158 20.3801 125.218 20.6273C125.288 20.8735 125.421 21.0934 125.602 21.2618C125.784 21.4302 126.006 21.5401 126.243 21.5789C126.814 21.6785 127.296 21.3982 127.715 21.0167Z" fill="#2F2E41"/>
<path d="M118.742 58.3409C118.881 58.7235 119.096 59.0688 119.373 59.3524C119.65 59.6361 119.981 59.8512 120.344 59.9827C120.706 60.1141 121.092 60.1587 121.472 60.1132C121.852 60.0678 122.219 59.9334 122.546 59.7196L135.647 67.1479L136.071 63.7247L123.341 55.673C122.97 55.108 122.418 54.7087 121.791 54.5508C121.163 54.3928 120.504 54.4872 119.937 54.8161C119.37 55.145 118.935 55.6854 118.715 56.3351C118.495 56.9847 118.505 57.6984 118.742 58.3409Z" fill="#FBC5A9"/>
<path d="M136.201 58.9324C135.987 59.2731 135.707 59.5595 135.379 59.7713C135.051 59.9832 134.684 60.1153 134.303 60.1585C133.922 60.2016 133.538 60.1547 133.176 60.0211C132.814 59.8875 132.483 59.6704 132.208 59.3851L117.909 63.5587L118.034 59.2126L132.258 55.2499C132.735 54.7857 133.355 54.5256 133.999 54.5187C134.644 54.5118 135.268 54.7588 135.754 55.2127C136.24 55.6666 136.554 56.296 136.636 56.9815C136.719 57.6671 136.564 58.3612 136.201 58.9324Z" fill="#FBC5A9"/>
<path d="M141.758 40.9564L144.546 40.769C144.546 40.769 147.81 45.3888 145.999 50.4019C145.999 50.4019 146.313 68.41 139.083 67.6703C131.854 66.9306 129.569 66.9306 129.569 66.9306L131.739 60.4378L136.594 58.83C136.594 58.83 135.098 51.7506 137.93 48.8051L141.758 40.9564Z" fill="#5960AC"/>
<path d="M121.626 40.7985L121.232 38.632C121.232 38.632 115.421 38.4855 114.272 47.9305C114.272 47.9305 109.046 62.0658 114.168 63.8858C119.29 65.7058 124.924 63.8858 124.924 63.8858L124.5 57.6522L118.864 56.4185C118.864 56.4185 121.775 52.3785 120.19 48.8741L121.626 40.7985Z" fill="#5960AC"/>
<defs>
<clipPath id="clip0_785_2833">
<rect width="162.458" height="58.2111" fill="white" transform="matrix(0.986773 -0.162108 0.164013 0.986458 5.14355 117.577)"/>
</clipPath>
</defs>
</svg>
