<svg width="186" height="175" viewBox="0 0 186 175" fill="none" xmlns="http://www.w3.org/2000/svg">
<path d="M135.471 32.5154C135.448 39.3091 134.968 46.0943 134.032 52.8288C134 53.0653 133.964 53.3018 133.931 53.5383H67.4243C67.2277 53.3047 67.0341 53.0682 66.8465 52.8288C66.221 52.0367 65.6342 51.2218 65.0951 50.3783C62.5036 46.3151 61.3003 41.548 62.459 38.2484L62.4798 38.1971C62.7298 37.4746 63.1266 36.8065 63.6474 36.231C66.3162 33.3246 71.7493 33.7777 76.6908 36.0857C72.2438 31.4811 68.6902 25.6598 68.3924 20.4482C68.1005 15.3649 70.8586 11.7176 73.8551 8.61463C73.9534 8.51205 74.0517 8.41231 74.1501 8.31258C74.1978 8.2613 74.2484 8.21286 74.2959 8.16157C76.6342 5.79656 79.3626 3.4629 83.3332 3.72221C87.6878 4.00715 92.5342 7.46918 95.9417 11.5153C99.3493 15.5586 101.625 20.1604 103.93 24.6511C106.239 29.1389 108.735 33.7407 112.419 37.5674C107.424 31.5922 103.385 24.785 101.869 18.1516C100.353 11.5182 101.616 5.13267 106.018 1.98123C107.355 1.05375 108.904 0.446027 110.537 0.2089C110.727 0.177556 110.921 0.151912 111.118 0.129117C115.207 -0.338171 120.101 0.989637 124.277 4.20376C128.876 7.74272 132.081 13.0084 133.69 18.0148C135.298 23.0212 135.495 27.8481 135.471 32.5154Z" fill="#F2F2F2"/>
<path d="M92.081 53.5382H90.8093C90.4041 53.2989 89.997 53.0624 89.588 52.8287C89.3348 52.6777 89.0787 52.5324 88.8224 52.3842C84.5898 49.9423 80.3314 47.601 76.0472 45.3604C71.7669 43.118 67.4658 40.98 63.1438 38.9464C63.0292 38.8995 62.9355 38.8156 62.8789 38.7094C62.8224 38.6032 62.8064 38.4814 62.834 38.3652C62.8385 38.3499 62.8456 38.3355 62.8549 38.3224C62.9144 38.2141 63.0485 38.1685 63.2451 38.2597C63.7753 38.5105 64.3084 38.7612 64.8386 39.0177C69.1726 41.0863 73.4886 43.2595 77.7867 45.5371C82.0819 47.8138 86.3532 50.1921 90.6007 52.672C90.69 52.7233 90.7795 52.7774 90.8688 52.8287C91.2738 53.0652 91.676 53.3017 92.081 53.5382Z" fill="white"/>
<path d="M108.478 53.5384H107.692C107.513 53.3019 107.337 53.0654 107.159 52.8289C102.959 47.2612 98.76 41.6935 94.5621 36.1257C87.6874 27.0105 80.8147 17.8952 73.9441 8.78001C73.9034 8.73097 73.873 8.67484 73.8547 8.61474C73.7952 8.41243 73.9501 8.29276 74.1496 8.31271C74.2338 8.32374 74.3145 8.35182 74.3864 8.39506C74.4583 8.4383 74.5197 8.49571 74.5666 8.56345C78.4209 13.6753 82.2743 18.7852 86.1266 23.8932C92.9656 32.9629 99.8035 42.0316 106.64 51.0993C107.075 51.6749 107.51 52.2533 107.945 52.8289C108.124 53.0654 108.303 53.3019 108.478 53.5384Z" fill="white"/>
<path d="M125.972 49.0763C125.939 50.3443 125.859 51.5923 125.752 52.829C125.731 53.0655 125.71 53.302 125.689 53.5385H124.864C124.888 53.302 124.912 53.0655 124.932 52.829C125.096 51.0424 125.209 49.2359 125.215 47.3809C125.207 42.2382 124.653 37.1096 123.562 32.0739C122.402 26.6518 120.751 21.3366 118.627 16.1885C116.397 10.7588 113.717 5.50865 110.611 0.488302C110.553 0.406518 110.527 0.307628 110.537 0.209062C110.57 -0.0160408 110.882 -0.0844261 111.118 0.129279C111.164 0.171207 111.204 0.219164 111.237 0.271749C111.621 0.895769 111.998 1.52169 112.369 2.1495C115.361 7.19842 117.928 12.4675 120.045 17.9067C122.061 23.0723 123.603 28.3961 124.652 33.8178C125.636 38.8475 126.078 43.9604 125.972 49.0763Z" fill="white"/>
<path d="M183.4 52.8291H2.59728C1.90861 52.8297 1.24834 53.0917 0.76139 53.5575C0.27444 54.0234 0.000604921 54.655 0 55.3138V172.515C0.000604133 173.174 0.27444 173.806 0.76139 174.272C1.24834 174.738 1.90861 175 2.59728 175H183.4C183.775 175 184.146 174.922 184.487 174.772C184.828 174.621 185.131 174.402 185.375 174.128C185.395 174.107 185.414 174.084 185.431 174.06C185.586 173.878 185.712 173.676 185.803 173.459C185.934 173.16 186.001 172.839 186 172.515V55.3138C185.999 54.6545 185.725 54.0225 185.237 53.5566C184.75 53.0907 184.089 52.8291 183.4 52.8291ZM185.258 172.515C185.259 172.862 185.152 173.201 184.951 173.49C184.773 173.744 184.532 173.952 184.249 174.094C183.986 174.224 183.695 174.291 183.4 174.291H2.59728C2.1053 174.29 1.63365 174.103 1.28577 173.77C0.937889 173.437 0.74219 172.986 0.741592 172.515V55.3138C0.742186 54.8432 0.937888 54.392 1.28577 54.0592C1.63365 53.7264 2.1053 53.5392 2.59728 53.5386H183.4C183.892 53.5385 184.364 53.7255 184.713 54.0583C185.061 54.3911 185.258 54.8427 185.258 55.3138V172.515Z" fill="#3F3D56"/>
<path d="M185.628 62.7876H0.370117V63.4979H185.628V62.7876Z" fill="#3F3D56"/>
<path d="M6.68165 60.2872C7.91188 60.2872 8.90919 59.3332 8.90919 58.1563C8.90919 56.9794 7.91188 56.0254 6.68165 56.0254C5.45141 56.0254 4.4541 56.9794 4.4541 58.1563C4.4541 59.3332 5.45141 60.2872 6.68165 60.2872Z" fill="#3F3D56"/>
<path d="M13.0855 60.2872C14.3157 60.2872 15.313 59.3332 15.313 58.1563C15.313 56.9794 14.3157 56.0254 13.0855 56.0254C11.8552 56.0254 10.8579 56.9794 10.8579 58.1563C10.8579 59.3332 11.8552 60.2872 13.0855 60.2872Z" fill="#3F3D56"/>
<path d="M19.4898 60.2872C20.72 60.2872 21.7173 59.3332 21.7173 58.1563C21.7173 56.9794 20.72 56.0254 19.4898 56.0254C18.2595 56.0254 17.2622 56.9794 17.2622 58.1563C17.2622 59.3332 18.2595 60.2872 19.4898 60.2872Z" fill="#3F3D56"/>
<path d="M82.5009 123.172C80.2731 121.785 79.165 118.561 79.7109 115.612C80.2567 112.664 82.3125 110.124 84.7768 109.029C85.9756 108.512 87.2898 108.288 88.6014 108.378C89.913 108.467 91.1809 108.866 92.2912 109.54C94.5511 110.862 97.7472 111.586 98.8204 114.231C99.6451 116.263 98.5991 120.391 97.4891 122.365C96.5297 124.071 94.7067 124.851 92.994 125.191C91.0991 125.56 89.1434 125.536 87.259 125.12C85.3746 124.704 83.6056 123.906 82.0716 122.78L82.5009 123.172Z" fill="#2F2E41"/>
<path d="M81.3389 138.833L79.5577 141.77L79.3224 142.158L78.9798 142.728H73.7285L74.083 142.158L75.0004 140.679L77.139 137.226L79.5607 138.152L81.3389 138.833Z" fill="#FFB8B8"/>
<path d="M73.3356 142.728L72.3765 142.158L72.2573 142.086L78.2771 131.592C78.536 131.138 78.8865 130.737 79.3083 130.414C79.7301 130.09 80.2149 129.849 80.7345 129.706C81.3905 129.519 82.0854 129.494 82.754 129.635C83.1441 129.713 83.5197 129.848 83.868 130.033C84.0114 130.109 84.1496 130.192 84.282 130.284C84.7911 130.626 85.2094 131.077 85.5032 131.601C85.8531 132.214 86.0259 132.906 86.0039 133.604C85.9819 134.303 85.7659 134.983 85.3782 135.576L83.0578 139.123L81.074 142.158L80.7017 142.728H73.3356Z" fill="#2F2E41"/>
<path d="M88.8016 126.897C92.842 126.897 96.1174 123.763 96.1174 119.898C96.1174 116.033 92.842 112.9 88.8016 112.9C84.7612 112.9 81.4858 116.033 81.4858 119.898C81.4858 123.763 84.7612 126.897 88.8016 126.897Z" fill="#FFB8B8"/>
<path d="M96.146 142.728H79.7011L79.7755 142.525C79.7338 142.403 79.695 142.28 79.6593 142.158C79.6206 142.03 79.5878 141.899 79.5581 141.77C79.2909 140.578 79.2919 139.344 79.561 138.152C80.4696 133.883 84.0945 130.415 84.0945 130.415C84.1571 130.37 84.2196 130.327 84.2821 130.284C84.8214 129.907 85.4065 129.593 86.0247 129.35C88.7173 128.281 91.5411 128.712 93.4383 129.264C94.0991 129.455 94.7451 129.691 95.3715 129.968C95.5919 130.068 95.7111 130.131 95.7111 130.131L95.8988 135.604L96.1251 142.158L96.146 142.728Z" fill="#636BC1"/>
<path d="M103.753 142.158L102.496 136.043L101.227 129.877C101.174 129.622 101.042 129.389 100.848 129.207C100.654 129.026 100.407 128.905 100.14 128.86L97.483 128.421L95.0108 128.013C94.7723 127.972 94.5266 127.994 94.3004 128.077C94.0741 128.16 93.8758 128.301 93.727 128.483C93.5412 128.705 93.4393 128.98 93.438 129.264C93.438 129.44 93.4756 129.613 93.5482 129.774C94.838 132.652 94.8619 137.208 94.5342 142.158C94.5193 142.346 94.5074 142.537 94.4924 142.728H103.872L103.753 142.158Z" fill="#2F2E41"/>
<path d="M86.0243 129.349C85.9696 129.142 85.8619 128.951 85.7108 128.793C85.5597 128.636 85.37 128.516 85.1588 128.446C84.9476 128.376 84.7215 128.357 84.5008 128.392C84.2801 128.426 84.0718 128.512 83.8946 128.643L82.7538 129.634L78.0833 133.703C77.9377 133.828 77.8236 133.983 77.7496 134.156C77.2224 135.362 76.1949 137.741 75.0004 140.678C74.8068 141.157 74.6073 141.65 74.4017 142.157C74.3302 142.345 74.2528 142.536 74.1753 142.727H81.8722C81.9347 142.536 81.9972 142.345 82.0598 142.157C82.4023 141.123 82.7359 140.109 83.0576 139.123C83.9988 136.259 84.8477 133.658 85.5031 131.6C85.6847 131.03 85.8505 130.504 86.0005 130.022C86.0705 129.804 86.0787 129.571 86.0243 129.349Z" fill="#2F2E41"/>
<path d="M105.481 142.728H105.978L105.91 142.568L105.728 142.158L102.925 135.795L102.496 136.043L99.0527 138.035L100.819 142.158L101.063 142.728H103.872H105.481Z" fill="#FFB8B8"/>
<path d="M102.639 130.749C102.26 129.799 101.512 129.026 100.551 128.593C99.5896 128.159 98.4905 128.097 97.4831 128.421C97.3544 128.461 97.2281 128.509 97.1049 128.563C96.3992 128.864 95.7979 129.352 95.3714 129.968C95.1973 130.214 95.0543 130.479 94.9454 130.757C94.7521 131.24 94.6607 131.755 94.6766 132.272C94.6924 132.789 94.8152 133.298 95.0377 133.769L95.8986 135.604L98.9784 142.158L99.2465 142.727H105.481L105.91 142.568L107.024 142.158L107.179 142.101L102.639 130.749Z" fill="#2F2E41"/>
<path d="M94.5475 111.861C94.8025 111.934 95.0756 111.925 95.3245 111.834C95.5734 111.744 95.7842 111.578 95.9243 111.361C96.057 111.14 96.135 110.893 96.1525 110.639C96.1699 110.385 96.1264 110.131 96.0251 109.896C95.8175 109.426 95.4903 109.013 95.0733 108.695C94.5998 108.285 94.0233 107.999 93.4001 107.866C93.0887 107.802 92.7666 107.803 92.4555 107.868C92.1445 107.933 91.8518 108.062 91.5972 108.245C91.3472 108.434 91.1619 108.69 91.065 108.981C90.9682 109.271 90.9641 109.583 91.0533 109.876C91.2427 110.401 91.7558 110.753 92.2682 111.015C93.2849 111.535 94.406 111.839 95.5561 111.91L94.5475 111.861Z" fill="#2F2E41"/>
<path d="M95.9707 119.689C94.7945 119.845 94.9456 119.272 94.4745 118.229C94.0034 117.187 93.3729 115.949 92.1908 115.844C91.222 115.757 90.4238 116.498 89.6389 117.048C88.2401 118.029 86.3549 118.509 84.7333 117.92C83.1118 117.332 81.985 115.483 82.6003 113.932C82.7918 113.504 83.0732 113.118 83.4271 112.798C83.7809 112.478 84.1997 112.231 84.6575 112.072C85.5758 111.76 86.5511 111.63 87.5237 111.691C89.6866 111.757 91.8081 112.277 93.7382 113.213C95.0703 113.86 96.3671 114.787 96.8725 116.132C97.3778 117.477 97.7104 119.367 96.2654 119.731L95.9707 119.689Z" fill="#2F2E41"/>
<path d="M93.9464 108.161C93.365 107.193 93.8449 105.864 94.7962 105.217C95.7474 104.571 97.0234 104.507 98.1585 104.767C99.2811 105.037 100.31 105.585 101.141 106.356C101.972 107.127 102.577 108.093 102.895 109.158C103.376 110.851 103.09 112.669 103.498 114.38C103.715 115.291 104.126 116.151 104.703 116.905C105.281 117.66 106.014 118.293 106.858 118.766C107.701 119.239 108.637 119.542 109.607 119.657C110.577 119.771 111.562 119.694 112.5 119.43C113.722 119.087 114.963 118.253 115.084 117.04C115.21 118.432 114.878 119.828 114.134 121.031C113.39 122.235 112.272 123.185 110.935 123.75C109.361 124.378 107.605 124.419 105.9 124.377C104.788 124.35 103.652 124.286 102.627 123.875C101.918 123.565 101.28 123.123 100.751 122.575C100.223 122.027 99.8141 121.383 99.5489 120.682C99.027 119.273 98.886 117.76 99.1392 116.284C99.3069 115.136 99.6407 114.011 99.734 112.856C99.8274 111.7 99.6503 110.466 98.9056 109.552C98.1609 108.638 96.7384 108.171 95.6796 108.734C95.2541 108.961 94.9109 109.331 94.4485 109.477C93.9862 109.623 93.3309 109.366 93.373 108.902L93.9464 108.161Z" fill="#2F2E41"/>
<path d="M143.869 142.727L143.926 142.158L145.606 125.437C146.156 125.025 146.748 124.665 147.372 124.363C150.83 122.696 154.166 123.494 155.971 124.183C156.45 124.363 156.912 124.579 157.353 124.83L158.336 142.158L158.369 142.727H143.869Z" fill="#636BC1"/>
<path d="M151.737 120.988C155.777 120.988 159.053 117.854 159.053 113.989C159.053 110.124 155.777 106.991 151.737 106.991C147.696 106.991 144.421 110.124 144.421 113.989C144.421 117.854 147.696 120.988 151.737 120.988Z" fill="#FFB8B8"/>
<path d="M157.672 118.256C158.216 117.708 158.577 117.017 158.71 116.272C158.842 115.527 158.74 114.761 158.416 114.072C158.092 113.383 157.561 112.801 156.89 112.401C156.22 112.002 155.44 111.802 154.651 111.827C153.639 111.859 152.686 112.255 151.72 112.546C150.257 113.022 148.696 113.157 147.167 112.938C145.63 112.71 144.242 111.926 143.29 110.748C142.385 109.558 142.103 107.907 142.742 106.569C143.481 105.024 145.205 104.172 146.827 103.48C147.481 103.167 148.18 102.947 148.901 102.828C149.262 102.771 149.632 102.786 149.987 102.871C150.342 102.957 150.675 103.112 150.964 103.326C151.42 103.701 151.687 104.265 152.183 104.59C152.742 104.956 153.467 104.946 154.14 105.01C155.657 105.156 157.092 105.739 158.254 106.684C159.416 107.628 160.249 108.888 160.644 110.297C161.039 111.706 160.976 113.196 160.464 114.57C159.951 115.943 159.014 117.135 157.777 117.987L157.672 118.256Z" fill="#2F2E41"/>
<path d="M148.462 127.259L147.372 124.364L147.304 124.183C147.272 124.098 147.22 124.02 147.151 123.957C147.083 123.893 147.001 123.846 146.911 123.817C146.82 123.789 146.724 123.78 146.63 123.793C146.536 123.805 146.446 123.837 146.367 123.888L145.129 124.677C145.129 124.677 137.191 124.677 136.554 129.233C136.545 129.305 136.533 129.384 136.524 129.47C136.524 129.474 136.523 129.478 136.521 129.481C136.441 129.78 134.942 135.32 133.656 142.158C133.62 142.346 133.584 142.537 133.548 142.728H150.798C151.359 135.858 151.045 129.471 148.462 127.259Z" fill="#2F2E41"/>
<path d="M169.039 142.158C168.098 135.143 166.751 129.469 166.751 129.469C166.739 129.384 166.727 129.304 166.718 129.233C166.084 124.677 158.146 124.677 158.146 124.677L156.909 123.888C156.83 123.837 156.74 123.805 156.645 123.793C156.551 123.78 156.455 123.789 156.365 123.817C156.275 123.846 156.192 123.894 156.124 123.957C156.056 124.021 156.004 124.098 155.971 124.184L154.813 127.258C152.23 129.471 151.916 135.858 152.478 142.727L169.113 142.728C169.089 142.537 169.063 142.346 169.039 142.158Z" fill="#2F2E41"/>
<path d="M29.3176 126.184L27.5483 142.158L27.4858 142.728H22.6992C22.7558 142.542 22.8124 142.351 22.872 142.158C24.2303 137.701 26.08 131.196 25.8803 129.472C25.5676 126.782 27.7569 125.885 27.7569 125.885L27.8939 125.91L29.3176 126.184Z" fill="#636BC1"/>
<path d="M37.037 121.254C41.0774 121.254 44.3528 118.12 44.3528 114.255C44.3528 110.39 41.0774 107.257 37.037 107.257C32.9966 107.257 29.7212 110.39 29.7212 114.255C29.7212 118.12 32.9966 121.254 37.037 121.254Z" fill="#A0616A"/>
<path d="M46.5069 139.337C46.138 139.987 45.8358 140.671 45.6045 141.377C45.5181 141.628 45.4347 141.89 45.3572 142.158C45.3006 142.343 45.25 142.534 45.1994 142.727H25.9038C25.9307 142.539 25.9544 142.348 25.9813 142.158C26.9673 134.706 27.7654 127.144 27.8936 125.91C27.9055 125.793 27.9115 125.734 27.9115 125.734C39.4744 119.904 47.9129 127.529 47.9129 127.529C47.9129 127.529 47.9248 127.583 47.9427 127.688C48.1274 128.754 49.0686 134.977 46.5069 139.337Z" fill="#636BC1"/>
<path d="M45.6046 141.377L44.3179 138.738L44.6306 128.275L47.9428 127.688L48.059 127.668C49.7711 128.621 51.0959 130.099 51.8179 131.863C52.4614 133.401 53.6855 138.029 54.7192 142.158C54.7669 142.349 54.8145 142.539 54.8622 142.728H46.2628L45.9858 142.158L45.6046 141.377Z" fill="#636BC1"/>
<path d="M57.3733 95.7129H15.0709C14.1636 95.7139 13.2937 96.0592 12.6521 96.673C12.0105 97.2867 11.6495 98.1189 11.6484 98.9869V139.454C11.6495 140.322 12.0105 141.154 12.6521 141.768C13.2937 142.382 14.1636 142.727 15.0709 142.728H57.3733C58.2808 142.727 59.151 142.382 59.7927 141.768C60.4344 141.155 60.7951 140.322 60.7957 139.454V98.9869C60.7951 98.1187 60.4344 97.2863 59.7927 96.6725C59.151 96.0586 58.2808 95.7135 57.3733 95.7129ZM60.2 139.454C60.1994 140.171 59.9014 140.858 59.3714 141.365C58.8414 141.872 58.1228 142.158 57.3733 142.158H15.0709C14.3216 142.157 13.6033 141.872 13.0734 141.365C12.5435 140.858 12.2453 140.171 12.2442 139.454V98.9869C12.2453 98.27 12.5435 97.5829 13.0734 97.076C13.6033 96.5691 14.3216 96.2839 15.0709 96.2828H57.3733C58.1228 96.2834 58.8414 96.5685 59.3714 97.0755C59.9014 97.5824 60.1994 98.2699 60.2 98.9869V139.454ZM27.5483 142.158L27.4857 142.728H45.1997C45.2503 142.534 45.3009 142.343 45.3575 142.158H27.5483Z" fill="#3F3D56"/>
<path d="M114.149 95.7129H71.8463C70.939 95.7139 70.0691 96.0592 69.4275 96.673C68.7859 97.2867 68.4249 98.1189 68.4238 98.9869V139.454C68.4249 140.322 68.7859 141.154 69.4275 141.768C70.0691 142.382 70.939 142.727 71.8463 142.728H114.149C115.056 142.727 115.926 142.382 116.568 141.768C117.21 141.155 117.57 140.322 117.571 139.454V98.9869C117.57 98.1187 117.21 97.2863 116.568 96.6725C115.926 96.0586 115.056 95.7135 114.149 95.7129ZM116.975 139.454C116.975 140.171 116.677 140.858 116.147 141.365C115.617 141.872 114.898 142.158 114.149 142.158H71.8463C71.097 142.157 70.3786 141.872 69.8488 141.365C69.3189 140.858 69.0207 140.171 69.0196 139.454V98.9869C69.0207 98.27 69.3189 97.5829 69.8488 97.076C70.3786 96.5691 71.097 96.2839 71.8463 96.2828H114.149C114.898 96.2834 115.617 96.5685 116.147 97.0755C116.677 97.5824 116.975 98.2699 116.975 98.9869V139.454ZM79.6592 142.158C79.695 142.281 79.7338 142.403 79.7754 142.526L79.701 142.728H94.4927C94.5077 142.537 94.5196 142.346 94.5345 142.158H79.6592Z" fill="#3F3D56"/>
<path d="M170.927 95.7129H128.625C127.717 95.7134 126.847 96.0585 126.205 96.6724C125.563 97.2863 125.203 98.1187 125.202 98.9869V139.454C125.203 140.322 125.563 141.155 126.205 141.769C126.847 142.382 127.717 142.728 128.625 142.728H170.927C171.834 142.727 172.704 142.382 173.346 141.768C173.987 141.154 174.348 140.322 174.349 139.454V98.9869C174.348 98.1189 173.987 97.2868 173.346 96.673C172.704 96.0592 171.834 95.714 170.927 95.7129ZM173.754 139.454C173.753 140.171 173.454 140.858 172.925 141.365C172.395 141.872 171.676 142.157 170.927 142.158H128.625C127.875 142.158 127.157 141.872 126.627 141.366C126.097 140.859 125.799 140.171 125.798 139.454V98.9869C125.799 98.2699 126.097 97.5824 126.627 97.0754C127.157 96.5684 127.875 96.2834 128.625 96.2828H170.927C171.676 96.2839 172.395 96.5691 172.925 97.076C173.454 97.5829 173.753 98.27 173.754 98.9869V139.454ZM150.842 142.158C150.827 142.346 150.812 142.537 150.797 142.728H163.632C163.656 142.54 163.683 142.349 163.707 142.158H150.842Z" fill="#3F3D56"/>
<path d="M142.146 159.254H43.8516C43.2197 159.254 42.6136 159.014 42.1667 158.587C41.7198 158.159 41.4688 157.579 41.4688 156.975C41.4688 156.37 41.7198 155.79 42.1667 155.363C42.6136 154.935 43.2197 154.695 43.8516 154.695H142.146C142.778 154.695 143.384 154.935 143.831 155.363C144.278 155.79 144.529 156.37 144.529 156.975C144.529 157.579 144.278 158.159 143.831 158.587C143.384 159.014 142.778 159.254 142.146 159.254Z" fill="#CCCCCC"/>
<path d="M114.594 83.7451H71.4039C70.7719 83.7451 70.1658 83.5049 69.7189 83.0774C69.272 82.6499 69.021 82.0701 69.021 81.4656C69.021 80.861 69.272 80.2812 69.7189 79.8537C70.1658 79.4262 70.7719 79.186 71.4039 79.186H114.594C115.226 79.186 115.832 79.4262 116.279 79.8537C116.726 80.2812 116.977 80.861 116.977 81.4656C116.977 82.0701 116.726 82.6499 116.279 83.0774C115.832 83.5049 115.226 83.7451 114.594 83.7451Z" fill="#636BC1"/>
<path d="M40.536 120.353C40.7837 120.586 41.1113 120.727 41.4585 120.748C41.8057 120.769 42.1493 120.67 42.4262 120.469C44.1504 119.246 45.6641 117.724 46.5599 115.868C47.5863 113.741 47.7008 111.13 46.4632 109.109C45.4171 107.4 43.5697 106.297 41.7285 105.392C41.0136 105.006 40.2435 104.722 39.4427 104.549C38.6334 104.378 37.7864 104.509 37.0743 104.914C36.7259 105.123 36.4514 105.428 36.2867 105.788C36.1219 106.149 36.0745 106.548 36.1507 106.935C35.2663 105.97 34.1336 105.242 32.8647 104.825C32.0658 104.526 31.1909 104.465 30.3552 104.651C29.1868 104.968 28.3338 105.961 27.8672 107.033C27.49 107.849 27.3597 108.75 27.4912 109.633C27.5604 110.073 27.7253 110.494 27.9752 110.868C28.2252 111.243 28.5545 111.564 28.942 111.809C29.908 112.381 31.1404 112.339 32.2498 112.106C33.3592 111.872 34.4331 111.466 35.5639 111.363C36.6948 111.26 37.9541 111.53 38.6423 112.395C39.127 113.003 39.2514 113.799 39.3602 114.557L39.9261 118.5C39.9724 119.071 40.1247 119.629 40.3758 120.148C40.4193 120.223 40.4732 120.292 40.536 120.353Z" fill="#2F2E41"/>
</svg>
