<svg width="180" height="175" viewBox="0 0 180 175" fill="none" xmlns="http://www.w3.org/2000/svg">
<g opacity="0.6" clip-path="url(#clip0_785_2858)">
<path fill-rule="evenodd" clip-rule="evenodd" d="M171.979 127.196C177.007 142.843 121.887 162.582 71.717 163.274C21.547 163.967 -5.67691 139.137 15.1399 120.141C35.9567 101.145 166.952 111.548 171.979 127.196Z" fill="white" fill-opacity="0.4"/>
<path d="M158.899 135.709L158.899 117.984C158.899 117.984 165.381 130.55 158.899 135.709Z" fill="#F1F1F1"/>
<path d="M159.3 135.706L147.048 123.719C147.048 123.719 160.117 127.129 159.3 135.706Z" fill="#F1F1F1"/>
<path d="M170.657 135.895L83.0619 135.895C83.001 135.895 82.9425 135.869 82.8994 135.823C82.8563 135.777 82.832 135.715 82.832 135.65C82.832 135.585 82.8563 135.522 82.8994 135.477C82.9425 135.431 83.001 135.405 83.0619 135.405L170.657 135.405C170.718 135.405 170.776 135.431 170.82 135.477C170.863 135.523 170.887 135.585 170.887 135.65C170.887 135.715 170.863 135.777 170.82 135.823C170.776 135.869 170.718 135.895 170.657 135.895Z" fill="#CBCBCB"/>
</g>
<path d="M155.147 9.93837H0.243279C0.178266 9.93677 0.116403 9.90698 0.0709331 9.85538C0.0254634 9.80378 0 9.73448 0 9.6623C0 9.59013 0.0254634 9.52082 0.0709331 9.46922C0.116403 9.41762 0.178266 9.38783 0.243279 9.38623H155.147C155.213 9.38783 155.274 9.41762 155.32 9.46922C155.365 9.52082 155.391 9.59013 155.391 9.6623C155.391 9.73448 155.365 9.80378 155.32 9.85538C155.274 9.90698 155.213 9.93677 155.147 9.93837Z" fill="#CACACA"/>
<path d="M5.71942 6.07353C7.19758 6.07353 8.39587 4.71393 8.39587 3.03677C8.39587 1.35961 7.19758 0 5.71942 0C4.24126 0 3.04297 1.35961 3.04297 3.03677C3.04297 4.71393 4.24126 6.07353 5.71942 6.07353Z" fill="#3F3D56"/>
<path d="M14.9655 6.07353C16.4437 6.07353 17.642 4.71393 17.642 3.03677C17.642 1.35961 16.4437 0 14.9655 0C13.4874 0 12.2891 1.35961 12.2891 3.03677C12.2891 4.71393 13.4874 6.07353 14.9655 6.07353Z" fill="#3F3D56"/>
<path d="M24.2116 6.07353C25.6898 6.07353 26.8881 4.71393 26.8881 3.03677C26.8881 1.35961 25.6898 0 24.2116 0C22.7334 0 21.5352 1.35961 21.5352 3.03677C21.5352 4.71393 22.7334 6.07353 24.2116 6.07353Z" fill="#3F3D56"/>
<path d="M149.607 0.75293H143.039C142.909 0.755798 142.785 0.815211 142.694 0.91841C142.603 1.02161 142.552 1.16036 142.552 1.30488C142.552 1.4494 142.603 1.58815 142.694 1.69135C142.785 1.79455 142.909 1.85396 143.039 1.85683H149.607C149.737 1.85396 149.861 1.79455 149.952 1.69135C150.044 1.58815 150.095 1.4494 150.095 1.30488C150.095 1.16036 150.044 1.02161 149.952 0.91841C149.861 0.815211 149.737 0.755798 149.607 0.75293Z" fill="#3F3D56"/>
<path d="M149.607 2.82422H143.039C142.909 2.82709 142.785 2.8865 142.694 2.9897C142.603 3.0929 142.552 3.23166 142.552 3.37617C142.552 3.52069 142.603 3.65945 142.694 3.76264C142.785 3.86584 142.909 3.92526 143.039 3.92812H149.607C149.737 3.92526 149.861 3.86584 149.952 3.76264C150.044 3.65945 150.095 3.52069 150.095 3.37617C150.095 3.23166 150.044 3.0929 149.952 2.9897C149.861 2.8865 149.737 2.82709 149.607 2.82422Z" fill="#3F3D56"/>
<path d="M149.607 4.89355H143.039C142.909 4.89642 142.785 4.95584 142.694 5.05903C142.603 5.16223 142.552 5.30099 142.552 5.44551C142.552 5.59002 142.603 5.72878 142.694 5.83198C142.785 5.93517 142.909 5.99459 143.039 5.99746H149.607C149.737 5.99459 149.861 5.93517 149.952 5.83198C150.044 5.72878 150.095 5.59002 150.095 5.44551C150.095 5.30099 150.044 5.16223 149.952 5.05903C149.861 4.95584 149.737 4.89642 149.607 4.89355Z" fill="#3F3D56"/>
<path d="M147.154 19.2598H6.0623C5.28105 19.2611 4.53212 19.6061 3.97969 20.2192C3.42726 20.8324 3.1164 21.6636 3.11523 22.5307V23.0582C3.1164 23.9253 3.42726 24.7565 3.97969 25.3696C4.53212 25.9828 5.28105 26.3278 6.0623 26.3291H147.154C147.935 26.3278 148.684 25.9828 149.237 25.3696C149.789 24.7565 150.1 23.9253 150.101 23.0582V22.5307C150.1 21.6636 149.789 20.8324 149.237 20.2192C148.684 19.6061 147.935 19.2611 147.154 19.2598Z" fill="#F0F0F0"/>
<path d="M23.0901 24.1001H9.65978C9.35929 24.0997 9.07125 23.9668 8.85892 23.7308C8.6466 23.4948 8.52734 23.1749 8.52734 22.8414C8.52734 22.5079 8.6466 22.188 8.85892 21.952C9.07125 21.716 9.35929 21.5832 9.65978 21.5827H23.0901C24.5527 21.56 24.5673 24.123 23.0901 24.1001Z" fill="white"/>
<path d="M63.2659 24.1001H49.8356C49.5351 24.0997 49.247 23.9668 49.0347 23.7308C48.8224 23.4948 48.7031 23.1749 48.7031 22.8414C48.7031 22.5079 48.8224 22.188 49.0347 21.952C49.247 21.716 49.5351 21.5832 49.8356 21.5827H63.2659C64.7284 21.56 64.7431 24.123 63.2659 24.1001Z" fill="white"/>
<path d="M103.443 24.1001H90.0123C89.7118 24.0997 89.4238 23.9668 89.2115 23.7308C88.9991 23.4948 88.8799 23.1749 88.8799 22.8414C88.8799 22.5079 88.9991 22.188 89.2115 21.952C89.4238 21.716 89.7118 21.5832 90.0123 21.5827H103.443C104.905 21.56 104.92 24.123 103.443 24.1001Z" fill="white"/>
<path d="M141.535 24.2359H128.105C127.804 24.2359 127.516 24.1033 127.303 23.8672C127.09 23.6312 126.971 23.311 126.971 22.9772C126.971 22.6433 127.09 22.3231 127.303 22.0871C127.516 21.851 127.804 21.7184 128.105 21.7184H141.535C142.998 21.6958 143.012 24.2588 141.535 24.2359Z" fill="#636BC1"/>
<path d="M120.582 19.2598H120.092V26.3291H120.582V19.2598Z" fill="white"/>
<path d="M69.8829 123.889H12.3005C11.7874 123.889 11.2955 123.662 10.9327 123.26C10.5699 122.857 10.3658 122.311 10.3652 121.741V112.381C10.3658 111.812 10.5699 111.266 10.9327 110.863C11.2955 110.461 11.7874 110.234 12.3005 110.233H69.8829C70.396 110.234 70.8879 110.461 71.2507 110.863C71.6134 111.266 71.8175 111.812 71.8181 112.381V121.741C71.8175 122.311 71.6134 122.857 71.2507 123.26C70.8879 123.662 70.396 123.889 69.8829 123.889Z" fill="#F0F0F0"/>
<path d="M64.2881 122.441H13.6061C13.093 122.44 12.6012 122.214 12.2384 121.811C11.8756 121.408 11.6715 120.862 11.6709 120.293V113.831C11.6715 113.262 11.8756 112.716 12.2384 112.313C12.6012 111.911 13.093 111.684 13.6061 111.684H68.5776C69.0906 111.684 69.5825 111.911 69.9453 112.313C70.3081 112.716 70.5122 113.262 70.5128 113.831V115.532C70.5109 117.364 69.8545 119.12 68.6876 120.415C67.5206 121.71 65.9384 122.439 64.2881 122.441Z" fill="white"/>
<path d="M46.805 116.396H23.6612C23.5288 116.396 23.4019 116.338 23.3083 116.234C23.2147 116.13 23.1621 115.989 23.1621 115.842C23.1621 115.695 23.2147 115.554 23.3083 115.45C23.4019 115.346 23.5288 115.288 23.6612 115.288H46.805C46.9373 115.288 47.0643 115.346 47.1579 115.45C47.2515 115.554 47.304 115.695 47.304 115.842C47.304 115.989 47.2515 116.13 47.1579 116.234C47.0643 116.338 46.9373 116.396 46.805 116.396Z" fill="#E6E6E6"/>
<path d="M58.5208 118.661H23.6613C23.5957 118.661 23.5307 118.647 23.47 118.619C23.4093 118.592 23.3542 118.551 23.3077 118.499C23.2612 118.448 23.2244 118.387 23.1992 118.319C23.1741 118.252 23.1611 118.18 23.1611 118.107C23.1611 118.034 23.1741 117.962 23.1992 117.895C23.2244 117.828 23.2612 117.766 23.3077 117.715C23.3542 117.664 23.4093 117.623 23.47 117.595C23.5307 117.567 23.5957 117.553 23.6613 117.553H58.5208C58.653 117.554 58.7797 117.612 58.873 117.716C58.9664 117.82 59.0188 117.96 59.0188 118.107C59.0188 118.254 58.9664 118.395 58.873 118.498C58.7797 118.602 58.653 118.661 58.5208 118.661Z" fill="#E6E6E6"/>
<path d="M73.5609 99.5238H7.90477C7.38087 99.5232 6.8786 99.2919 6.50814 98.8807C6.13769 98.4696 5.92931 97.9121 5.92871 97.3306V41.6277C5.92931 41.0462 6.1377 40.4888 6.50815 40.0776C6.87861 39.6665 7.38088 39.4352 7.90477 39.4346H73.5609C74.0848 39.4352 74.5871 39.6665 74.9575 40.0776C75.328 40.4888 75.5364 41.0462 75.537 41.6277V97.3306C75.5364 97.9121 75.328 98.4696 74.9575 98.8807C74.5871 99.2919 74.0848 99.5232 73.5609 99.5238Z" fill="white"/>
<path d="M73.5607 99.7962H7.90465C7.3158 99.7954 6.75127 99.5354 6.33489 99.0733C5.91851 98.6111 5.68428 97.9846 5.68359 97.331V41.6281C5.68428 40.9745 5.91851 40.348 6.3349 39.8859C6.75128 39.4237 7.31581 39.1638 7.90465 39.1631H73.5607C74.1495 39.1638 74.7141 39.4237 75.1304 39.8859C75.5468 40.348 75.781 40.9745 75.7817 41.6281V97.331C75.781 97.9846 75.5468 98.6111 75.1304 99.0733C74.7141 99.5354 74.1495 99.7954 73.5607 99.7962ZM7.90465 39.7069C7.44571 39.7075 7.00571 39.91 6.68118 40.2702C6.35665 40.6304 6.17409 41.1187 6.17355 41.6281V97.331C6.17406 97.8404 6.35661 98.3288 6.68114 98.689C7.00568 99.0492 7.44569 99.2518 7.90465 99.2524H73.5607C74.0197 99.2518 74.4597 99.0492 74.7842 98.689C75.1087 98.3288 75.2913 97.8404 75.2918 97.331V41.6281C75.2912 41.1187 75.1087 40.6304 74.7841 40.2702C74.4596 39.91 74.0196 39.7074 73.5607 39.7069L7.90465 39.7069Z" fill="#F0F0F0"/>
<path d="M6.08008 88.9199V97.3307C6.0808 97.8675 6.27324 98.3821 6.61522 98.7616C6.9572 99.1412 7.42083 99.3548 7.90446 99.3556H73.5607C74.0443 99.3548 74.5079 99.1412 74.8499 98.7616C75.1919 98.3821 75.3843 97.8675 75.385 97.3307V88.9199H6.08008Z" fill="#F0F0F0"/>
<path d="M6.6987 39.7902L6.43457 40.248L75.2529 89.1495L75.517 88.6916L6.6987 39.7902Z" fill="#F0F0F0"/>
<path d="M75.4472 39.79L6.62891 88.6914L6.89304 89.1493L75.7113 40.2479L75.4472 39.79Z" fill="#F0F0F0"/>
<path d="M137.583 148.019L134.548 148.019L133.104 135.025L137.583 135.026L137.583 148.019Z" fill="#FBC5A9"/>
<path d="M137.503 146.918L134.265 145.458L134.169 145.415L132.381 146.918C131.399 146.918 130.456 147.338 129.747 148.092C129.038 148.845 128.619 149.873 128.576 150.961C128.571 151.021 128.571 151.084 128.571 151.146V151.285H138.358V146.918H137.503Z" fill="#191847"/>
<path d="M130.475 144.884L127.612 146.002L122.364 134.277L126.59 132.627L130.475 144.884Z" fill="#FBC5A9"/>
<path d="M130.07 143.875L126.578 143.691L126.475 143.685L125.238 145.763C124.312 146.124 123.548 146.868 123.104 147.84C122.661 148.812 122.573 149.936 122.858 150.978C122.871 151.036 122.89 151.095 122.909 151.154L122.95 151.285L132.182 147.68L130.876 143.561L130.07 143.875Z" fill="#191847"/>
<path d="M138.656 91.9927C141.433 91.8732 137.993 116.433 137.993 116.433C137.993 116.433 138.999 137.996 138.786 139.128C138.573 140.26 138.759 143.311 138.759 143.311C138.215 142.212 132.602 143.042 132.602 143.042L131.839 121.188L127.94 103.678L122.536 115.415L127.716 133.431C127.716 133.431 129.814 135.586 129.59 136.437C129.367 137.289 123.872 139.209 122.863 139.252C121.853 139.296 122.309 137.873 122.26 136.472C122.211 135.071 117.459 122.087 115.788 117.67C114.117 113.252 115.416 107.023 116.269 102.497C117.122 97.9702 121.611 89.4758 121.611 89.4758C127.182 82.5016 135.879 92.1122 138.656 91.9927Z" fill="#191847"/>
<path d="M104.816 72.1448C104.968 72.4674 105.182 72.749 105.443 72.9698C105.703 73.1907 106.005 73.3454 106.325 73.423C106.645 73.5007 106.977 73.4994 107.297 73.4193C107.617 73.3391 107.918 73.1821 108.177 72.9593L114.855 77.7947L114.834 73.1962L108.496 69.3094C108.13 68.8506 107.625 68.5568 107.077 68.4837C106.528 68.4106 105.975 68.5633 105.521 68.9128C105.068 69.2623 104.745 69.7843 104.615 70.38C104.485 70.9757 104.557 71.6037 104.816 72.1448Z" fill="#FBC5A9"/>
<path d="M137.214 95.93C130.328 95.9303 126.533 94.4003 124.518 93.0342C122.054 91.3638 121.632 89.6023 121.615 89.528L121.61 89.5067L121.85 86.1569L121.955 85.8961C122.438 84.6953 122.503 83.338 122.135 82.0877L122.127 82.062L122.129 82.0351L123.74 58.8574L129.438 56.7858L131.095 54.9372L138.476 54.8184L139.504 57.1323L145.323 59.5634L142.464 78.4484L141.094 81.07L141.645 83.9257L141.641 83.9514L139.844 95.8605L139.745 95.8653C138.858 95.9093 138.015 95.9309 137.214 95.93Z" fill="#636BC1"/>
<path d="M119.399 81.47L116.697 79.6923L116.528 79.4209C116.184 78.8717 115.729 78.4196 115.199 78.101C114.669 77.7823 114.079 77.606 113.477 77.5862L113.445 77.5851L109.725 75.1571L111.267 70.1424L117.1 72.055L121.166 60.8407C121.39 60.2248 121.763 59.6897 122.244 59.295C122.724 58.9003 123.295 58.6614 123.891 58.6048C124.487 58.5483 125.085 58.6764 125.619 58.9748C126.154 59.2732 126.603 59.7303 126.917 60.2952C127.239 60.8856 127.406 61.5642 127.399 62.2542V69.592L127.375 69.6284L119.399 81.47Z" fill="#5960AC"/>
<path d="M137.46 91.6167C137.518 91.2583 137.645 90.9184 137.834 90.6208C138.023 90.3232 138.269 90.0752 138.553 89.8943C138.838 89.7134 139.155 89.6039 139.482 89.5736C139.809 89.5434 140.137 89.593 140.445 89.7191L145.505 82.8804L146.731 87.2732L141.738 93.0939C141.513 93.6536 141.11 94.1022 140.607 94.3548C140.104 94.6074 139.535 94.6463 139.008 94.4642C138.48 94.2821 138.031 93.8917 137.746 93.3668C137.461 92.842 137.359 92.2193 137.46 91.6167Z" fill="#FBC5A9"/>
<path d="M145.026 90.7528L141.665 87.023L143.804 81.2386L146.904 76.5406C143.601 74.7558 141.122 70.5276 139.325 67.0274L139.305 66.9881L139.752 63.099C139.857 62.1893 140.185 61.3293 140.701 60.613C141.15 59.9901 141.726 59.4956 142.382 59.1707C143.038 58.8458 143.755 58.6999 144.473 58.7454C145.19 58.7909 145.887 59.0264 146.506 59.4322C147.124 59.8379 147.646 60.4021 148.028 61.0777L154.052 75.9419L153.984 76.0542L149.139 85.2222L147.816 86.1741L145.026 90.7528Z" fill="#5960AC"/>
<path d="M140.085 47.0216C139.863 48.8139 139.01 50.4352 137.712 51.5295C136.414 52.6237 134.778 53.1013 133.162 52.8573C131.547 52.6133 130.086 51.6678 129.098 50.2283C128.111 48.7889 127.679 46.9734 127.897 45.1806L127.909 45.0837C128.164 43.3149 129.035 41.7281 130.334 40.6657C131.634 39.6032 133.257 39.1503 134.855 39.4046C136.453 39.6589 137.896 40.6 138.874 42.0249C139.852 43.4498 140.286 45.2443 140.083 47.0214L140.085 47.0216Z" fill="#FBC5A9"/>
<path d="M138.519 50.5373C138.835 49.8253 139.16 49.0608 139.071 48.2733C138.982 47.4858 138.286 46.733 137.603 46.9671C137.194 47.107 136.886 47.5548 136.458 47.5777C135.871 47.6093 135.534 46.8628 135.351 46.2422L134.606 43.7145C133.891 44.3332 133.061 44.7691 132.176 44.991C131.292 45.2129 130.374 45.2153 129.488 44.998C128.796 44.8225 128.098 44.4803 127.692 43.8342C127.286 43.1882 127.289 42.1861 127.845 41.6976C128.118 41.458 128.481 41.367 128.742 41.1114C128.904 40.9529 129.015 40.7407 129.06 40.5064C129.105 40.272 129.08 40.0279 128.99 39.8102C128.9 39.5925 128.749 39.4127 128.56 39.2975C128.371 39.1823 128.153 39.1378 127.939 39.1705L129.815 38.9103L129.256 37.7884C129.469 37.9489 129.709 38.0583 129.962 38.1098C130.215 38.1613 130.474 38.1536 130.724 38.0873C131.229 37.9864 131.704 37.7558 132.198 37.602C133.395 37.2628 134.658 37.3665 135.797 37.8972C136.936 38.4279 137.887 39.3567 138.507 40.5424C138.969 40.3714 139.466 40.36 139.934 40.5098C140.401 40.6597 140.817 40.9637 141.125 41.3815C141.627 42.0888 141.764 43.0328 141.783 43.9331C141.82 45.7082 141.471 47.467 140.767 49.0611C140.564 49.5674 140.274 50.0244 139.912 50.4058C139.73 50.5949 139.513 50.7375 139.276 50.8235C139.039 50.9096 138.788 50.937 138.54 50.9039" fill="#2F2E41"/>
<path d="M34.8777 55.3132C34.9781 56.903 35.4 58.4472 36.1123 59.831C37.6133 62.7569 40.1875 64.8753 42.9599 66.1344C46.4235 67.7075 50.2846 67.756 53.9605 67.4052C57.3747 67.0794 60.7541 66.3242 64.1808 66.1686C66.8309 66.0745 69.4836 66.1447 72.1266 66.379C77.2544 66.7829 82.3608 67.5324 87.4344 68.441C88.8085 68.6841 90.1796 68.9452 91.5479 69.2245C91.6772 69.2371 91.8051 69.2635 91.9299 69.3032C91.9548 69.3145 91.9947 69.3057 92.0175 69.3216C92.0588 69.3505 91.8504 69.2484 91.9767 69.3643C92.1527 69.5692 92.3097 69.7934 92.4451 70.0334L94.3189 72.7097C94.8563 73.4772 95.355 74.4097 96.0494 75.0147C96.5391 75.4345 97.1299 75.6841 97.7472 75.7318C98.3645 75.7796 98.9807 75.6234 99.5181 75.283C100.08 74.8893 100.527 74.3248 100.808 73.6568C101.239 72.7794 101.753 71.9556 102.342 71.1995C104.571 68.3131 107.669 66.5377 110.261 64.1091C111.516 62.9809 112.587 61.6218 113.428 60.091C114.145 58.7058 114.591 57.1683 114.736 55.5789C115.047 52.3511 114.154 49.0595 112.653 46.3136C111.021 43.3635 108.675 40.9809 105.884 39.4363C102.747 37.6629 99.2771 36.7991 95.7984 36.3687C92.105 35.9117 88.3687 35.9131 84.6573 35.9592C80.4921 36.0107 76.3345 36.214 72.1843 36.5691C68.0286 36.9261 63.8892 37.4336 59.7662 38.0915C55.81 38.7228 51.8054 39.3808 47.9329 40.4979C44.5118 41.4847 41.1004 43.0271 38.5457 45.8218C36.2743 48.3067 34.6945 51.7072 34.8777 55.3132Z" fill="#636BC1"/>
<path d="M54.0014 56.3401C53.8323 56.3316 53.6666 56.2844 53.5147 56.2014C53.3628 56.1184 53.228 56.0014 53.1189 55.8577C53.0098 55.7141 52.9286 55.5469 52.8805 55.3667C52.8325 55.1866 52.8185 54.9973 52.8396 54.8109L52.9275 54.0428C52.9442 53.8955 52.9285 53.7458 52.8817 53.6067C52.8349 53.4676 52.7583 53.3432 52.6586 53.2442L52.1388 52.7287C51.9685 52.5599 51.8442 52.3417 51.78 52.0986C51.7157 51.8555 51.714 51.5974 51.775 51.3533C51.8361 51.1092 51.9574 50.8889 52.1254 50.7174C52.2934 50.5458 52.5012 50.4299 52.7255 50.3827L53.4107 50.2382C53.5421 50.2105 53.6654 50.1479 53.7701 50.0555C53.8748 49.9632 53.9577 49.844 54.0117 49.7082L54.2929 48.9993C54.385 48.7675 54.5337 48.569 54.7221 48.4261C54.9106 48.2832 55.1313 48.2017 55.3593 48.1907C55.5873 48.1798 55.8135 48.2398 56.0124 48.364C56.2112 48.4883 56.3748 48.6718 56.4846 48.8938L56.8199 49.5725C56.8843 49.7028 56.9762 49.8138 57.0878 49.8958C57.1993 49.9779 57.3272 50.0286 57.4604 50.0436L58.1542 50.1214C58.3813 50.1469 58.5974 50.2424 58.7781 50.3971C58.9588 50.5518 59.0969 50.7596 59.1768 50.9969C59.2567 51.2342 59.2752 51.4916 59.2301 51.7399C59.1851 51.9883 59.0783 52.2177 58.9219 52.4022L58.4441 52.966C58.3524 53.074 58.2858 53.2052 58.25 53.3482C58.2142 53.4912 58.2103 53.6418 58.2387 53.7868L58.3861 54.5439C58.4344 54.7914 58.4192 55.049 58.3425 55.2875C58.2657 55.526 58.1304 55.7359 57.9518 55.8935C57.7732 56.0511 57.5584 56.1501 57.3317 56.1793C57.1051 56.2085 56.8756 56.1668 56.6692 56.0588L56.0383 55.7289C55.9173 55.6653 55.7843 55.6354 55.6506 55.6417C55.5168 55.6481 55.3866 55.6906 55.271 55.7655L54.6682 56.1551C54.4664 56.2861 54.235 56.3503 54.0014 56.3401Z" fill="white"/>
<path d="M63.8239 56.023C63.5127 56.007 63.2184 55.8612 62.9999 55.6147C62.8679 55.4595 62.7695 55.2731 62.712 55.0694C62.6545 54.8658 62.6396 54.6503 62.6682 54.4393L62.7489 53.7346C62.7661 53.5845 62.7501 53.4321 62.7024 53.2904C62.6547 53.1487 62.5767 53.022 62.475 52.9212L61.9929 52.443C61.8507 52.3083 61.7373 52.14 61.6611 51.9506C61.5848 51.7611 61.5476 51.5551 61.5521 51.3476C61.5627 51.0403 61.6669 50.7461 61.8478 50.5132C62.0288 50.2802 62.2756 50.1224 62.5479 50.0655L63.2252 49.9228C63.3592 49.8945 63.4849 49.8306 63.5916 49.7364C63.6983 49.6422 63.7827 49.5206 63.8377 49.3822L64.0901 48.746C64.1803 48.5045 64.3288 48.2954 64.5193 48.1416C64.7097 47.9878 64.9347 47.8953 65.1695 47.8742C65.3996 47.8598 65.6286 47.9181 65.83 48.0424C66.0314 48.1668 66.1969 48.3521 66.3071 48.5767L66.6385 49.2475C66.7041 49.3803 66.7978 49.4933 66.9116 49.5769C67.0253 49.6606 67.1557 49.7122 67.2914 49.7274L67.9344 49.7995C68.1209 49.8157 68.3018 49.8779 68.4639 49.9815C68.626 50.0852 68.7652 50.2277 68.8714 50.3987C69.0254 50.6542 69.0967 50.9602 69.0736 51.2665C69.0505 51.5729 68.9345 51.8615 68.7444 52.0851L68.2721 52.6423C68.1788 52.7524 68.111 52.886 68.0746 53.0317C68.0381 53.1773 68.0341 53.3306 68.0629 53.4783L68.1989 54.1774C68.2426 54.3791 68.2453 54.5891 68.2069 54.7922C68.1686 54.9952 68.09 55.1863 67.9771 55.3516C67.8064 55.5944 67.5662 55.7654 67.2961 55.8363C67.026 55.9073 66.7423 55.8739 66.4916 55.7417L65.8673 55.4151C65.7441 55.3507 65.6087 55.3205 65.4727 55.3271C65.3366 55.3336 65.2041 55.3768 65.0864 55.4528L64.4906 55.8379C64.2888 55.969 64.0575 56.0332 63.8239 56.023Z" fill="white"/>
<path d="M73.6713 55.9768C73.5022 55.9684 73.3365 55.9211 73.1846 55.8381C73.0327 55.7551 72.898 55.6381 72.7888 55.4944C72.6797 55.3508 72.5985 55.1836 72.5504 55.0034C72.5024 54.8233 72.4884 54.634 72.5095 54.4476L72.5974 53.6795C72.6142 53.5322 72.5985 53.3825 72.5516 53.2434C72.5048 53.1043 72.4282 52.9799 72.3285 52.8809L71.8087 52.3654C71.6385 52.1967 71.5142 51.9784 71.4499 51.7353C71.3856 51.4923 71.3839 51.2341 71.4449 50.99C71.506 50.7459 71.6274 50.5256 71.7953 50.3541C71.9633 50.1826 72.1712 50.0666 72.3954 50.0194L73.0807 49.8749C73.212 49.8473 73.3354 49.7846 73.44 49.6923C73.5447 49.5999 73.6276 49.4807 73.6816 49.345L73.9629 48.636C74.055 48.4043 74.2036 48.2057 74.3921 48.0628C74.5805 47.92 74.8012 47.8384 75.0292 47.8274C75.2572 47.8165 75.4834 47.8765 75.6823 48.0008C75.8812 48.125 76.0447 48.3085 76.1546 48.5306L76.4899 49.2092C76.5542 49.3395 76.6461 49.4505 76.7577 49.5326C76.8693 49.6146 76.9972 49.6653 77.1304 49.6803L77.8241 49.7581C78.0512 49.7836 78.2673 49.8791 78.448 50.0338C78.6288 50.1885 78.7669 50.3963 78.8467 50.6336C78.9266 50.8709 78.9451 51.1283 78.9 51.3767C78.855 51.625 78.7482 51.8544 78.5918 52.0389L78.114 52.6027C78.0223 52.7107 77.9557 52.8419 77.9199 52.9849C77.8841 53.1279 77.8802 53.2785 77.9086 53.4235L78.056 54.1806C78.1043 54.4281 78.0892 54.6857 78.0124 54.9242C77.9357 55.1627 77.8003 55.3726 77.6217 55.5302C77.4431 55.6878 77.2283 55.7868 77.0016 55.816C76.775 55.8452 76.5455 55.8035 76.3391 55.6955L75.7082 55.3656C75.5873 55.302 75.4542 55.2721 75.3205 55.2784C75.1868 55.2848 75.0565 55.3273 74.9409 55.4022L74.3381 55.7918C74.1363 55.9228 73.9049 55.987 73.6713 55.9768Z" fill="white"/>
<path opacity="0.2" d="M83.2504 55.6882C83.0813 55.6798 82.9156 55.6326 82.7637 55.5495C82.6118 55.4665 82.4771 55.3495 82.3679 55.2059C82.2588 55.0622 82.1776 54.895 82.1296 54.7149C82.0815 54.5347 82.0675 54.3454 82.0886 54.159L82.1765 53.3909C82.1933 53.2436 82.1776 53.094 82.1307 52.9549C82.0839 52.8158 82.0073 52.6914 81.9076 52.5924L81.3878 52.0769C81.2176 51.9081 81.0933 51.6898 81.029 51.4468C80.9647 51.2037 80.963 50.9455 81.0241 50.7014C81.0851 50.4573 81.2065 50.237 81.3744 50.0655C81.5424 49.894 81.7502 49.7781 81.9745 49.7308L82.6598 49.5864C82.7911 49.5587 82.9145 49.496 83.0192 49.4037C83.1238 49.3114 83.2067 49.1922 83.2607 49.0564L83.542 48.3474C83.6341 48.1157 83.7827 47.9172 83.9712 47.7743C84.1596 47.6314 84.3803 47.5498 84.6083 47.5389C84.8363 47.5279 85.0625 47.5879 85.2614 47.7122C85.4602 47.8364 85.6238 48.0199 85.7337 48.242L86.069 48.9206C86.1333 49.0509 86.2252 49.1619 86.3368 49.244C86.4484 49.3261 86.5763 49.3768 86.7095 49.3917L87.4032 49.4695C87.6303 49.495 87.8464 49.5905 88.0271 49.7453C88.2079 49.9 88.346 50.1078 88.4258 50.3451C88.5057 50.5824 88.5242 50.8397 88.4791 51.0881C88.4341 51.3364 88.3273 51.5658 88.1709 51.7503L87.6931 52.3141C87.6014 52.4221 87.5348 52.5533 87.499 52.6963C87.4632 52.8394 87.4593 52.9899 87.4877 53.135L87.6351 53.892C87.6834 54.1395 87.6683 54.3971 87.5915 54.6356C87.5148 54.8741 87.3794 55.084 87.2008 55.2416C87.0222 55.3992 86.8074 55.4983 86.5807 55.5275C86.3541 55.5567 86.1246 55.5149 85.9182 55.4069L85.2873 55.077C85.1664 55.0134 85.0333 54.9835 84.8996 54.9899C84.7659 54.9963 84.6356 55.0387 84.52 55.1136L83.9172 55.5032C83.7154 55.6343 83.484 55.6985 83.2504 55.6882Z" fill="black"/>
<path opacity="0.2" d="M92.8286 55.3997C92.6594 55.3912 92.4937 55.344 92.3418 55.261C92.1899 55.1779 92.0552 55.0609 91.9461 54.9173C91.8369 54.7736 91.7558 54.6065 91.7077 54.4263C91.6596 54.2461 91.6457 54.0569 91.6667 53.8704L91.7546 53.1024C91.7714 52.955 91.7557 52.8054 91.7088 52.6663C91.662 52.5272 91.5854 52.4028 91.4857 52.3038L90.9659 51.7883C90.7957 51.6195 90.6714 51.4013 90.6071 51.1582C90.5428 50.9151 90.5411 50.6569 90.6022 50.4128C90.6632 50.1687 90.7846 49.9485 90.9525 49.7769C91.1205 49.6054 91.3284 49.4895 91.5526 49.4422L92.2379 49.2978C92.3692 49.2701 92.4926 49.2074 92.5973 49.1151C92.702 49.0228 92.7848 48.9036 92.8388 48.7678L93.1201 48.0589C93.2122 47.8271 93.3608 47.6286 93.5493 47.4857C93.7377 47.3428 93.9584 47.2613 94.1864 47.2503C94.4144 47.2393 94.6406 47.2994 94.8395 47.4236C95.0384 47.5479 95.202 47.7314 95.3118 47.9534L95.6471 48.6321C95.7114 48.7624 95.8033 48.8733 95.9149 48.9554C96.0265 49.0375 96.1544 49.0882 96.2876 49.1032L96.9813 49.181C97.2084 49.2065 97.4245 49.302 97.6052 49.4567C97.786 49.6114 97.9241 49.8192 98.004 50.0565C98.0839 50.2938 98.1023 50.5512 98.0572 50.7995C98.0122 51.0479 97.9054 51.2773 97.749 51.4618L97.2713 52.0256C97.1795 52.1336 97.1129 52.2648 97.0771 52.4078C97.0413 52.5508 97.0375 52.7013 97.0658 52.8464L97.2133 53.6034C97.2615 53.851 97.2464 54.1086 97.1696 54.3471C97.0929 54.5856 96.9575 54.7955 96.7789 54.9531C96.6003 55.1107 96.3855 55.2097 96.1589 55.2389C95.9322 55.2681 95.7027 55.2264 95.4963 55.1184L94.8654 54.7884C94.7445 54.7248 94.6114 54.6949 94.4777 54.7013C94.344 54.7077 94.2137 54.7502 94.0981 54.825L93.4953 55.2146C93.2935 55.3457 93.0622 55.4099 92.8286 55.3997Z" fill="black"/>
<path d="M157.838 134.311L158.118 127.318C161.039 125.585 164.297 124.669 167.609 124.651C163.051 128.787 163.62 136.761 160.53 142.324C159.554 144.051 158.24 145.512 156.687 146.598C155.133 147.685 153.379 148.37 151.554 148.602L147.739 151.194C147.216 147.955 147.331 144.629 148.077 141.445C148.824 138.26 150.183 135.293 152.062 132.747C153.129 131.331 154.352 130.07 155.703 128.993C156.617 131.666 157.838 134.311 157.838 134.311Z" fill="#F2F2F2"/>
<path d="M179.708 151.807H77.4597C77.3823 151.807 77.3081 151.773 77.2534 151.712C77.1987 151.652 77.168 151.569 77.168 151.483C77.168 151.398 77.1987 151.315 77.2534 151.254C77.3081 151.194 77.3823 151.16 77.4597 151.16H179.708C179.786 151.16 179.86 151.194 179.915 151.254C179.969 151.315 180 151.398 180 151.483C180 151.569 179.969 151.652 179.915 151.712C179.86 151.773 179.786 151.807 179.708 151.807Z" fill="#CACACA"/>
<defs>
<clipPath id="clip0_785_2858">
<rect width="163.482" height="58.2212" fill="white" transform="matrix(0.986939 -0.161093 0.165046 0.986286 5.17676 117.577)"/>
</clipPath>
</defs>
</svg>
