<svg width="303" height="155" viewBox="0 0 303 155" fill="none" xmlns="http://www.w3.org/2000/svg">
<path d="M37.3007 128.506C36.0507 128.598 35.0239 127.531 35.2005 126.291C36.6994 115.769 40.2004 105.235 45.5377 95.2103C51.2794 84.4256 59.0338 74.4411 68.3582 65.827C77.6825 57.2129 88.3942 50.1377 99.8816 45.0056C110.596 40.2187 121.79 37.2096 132.905 36.1214C134.153 35.9993 135.178 37.067 135.037 38.3114L134.714 41.1571C134.605 42.1123 133.831 42.8526 132.873 42.9404C122.464 43.8943 111.969 46.6829 101.932 51.1672C91.363 55.889 81.5078 62.3984 72.929 70.3237C64.3502 78.2491 57.2158 87.4352 51.9332 97.3576C46.9288 106.757 43.6791 116.644 42.3456 126.508C42.2168 127.461 41.4459 128.204 40.4863 128.274L37.3007 128.506Z" fill="white"/>
<path d="M54.1404 158.687C54.1404 130.086 64.3531 102.658 82.5317 82.4343C100.71 62.211 125.366 50.8496 151.074 50.8496C176.783 50.8496 201.438 62.211 219.617 82.4343C237.795 102.658 248.008 130.086 248.008 158.687H151.074L54.1404 158.687Z" fill="url(#paint0_linear_710_77)"/>
<path d="M0.449127 158.264C0.449127 118.286 16.3871 79.9462 44.7567 51.6777C73.1264 23.4093 111.604 7.5282 151.725 7.5282C191.845 7.5282 230.323 23.4093 258.693 51.6777C287.062 79.9462 303 118.286 303 158.264H293.468C293.468 120.806 278.534 84.8814 251.952 58.3943C225.37 31.9072 189.317 17.0269 151.725 17.0269C114.132 17.0269 78.0793 31.9072 51.4973 58.3943C24.9154 84.8814 9.98181 120.806 9.98181 158.264H0.449127Z" fill="white"/>
<ellipse cx="225.846" cy="33.9487" rx="24.9829" ry="24.9623" fill="url(#paint1_linear_710_77)"/>
<defs>
<linearGradient id="paint0_linear_710_77" x1="248.008" y1="158.687" x2="54.1404" y2="158.687" gradientUnits="userSpaceOnUse">
<stop offset="0.170833" stop-color="#BEC8FF"/>
<stop offset="1" stop-color="#535FCF"/>
</linearGradient>
<linearGradient id="paint1_linear_710_77" x1="225.846" y1="8.98645" x2="226" y2="63" gradientUnits="userSpaceOnUse">
<stop stop-color="#4551C8"/>
<stop offset="0.74375" stop-color="#AFC0FF"/>
</linearGradient>
</defs>
</svg>
