<svg width="60" height="60" viewBox="0 0 60 60" fill="none" xmlns="http://www.w3.org/2000/svg">
<circle cx="30" cy="30" r="18" fill="#EFF1F7"/>
<path d="M1.33557 30C0.597954 30 -0.00310135 30.5983 0.0297127 31.3352C0.304325 37.5014 2.47567 43.4453 6.26353 48.3461C10.3242 53.5998 16.013 57.3579 22.4387 59.0315C28.8643 60.7051 35.6636 60.1996 41.7712 57.5942C47.8787 54.9888 52.9493 50.4308 56.1884 44.6344C59.4275 38.8381 60.6521 32.1308 59.6702 25.5638C58.6883 18.9968 55.5555 12.9411 50.7626 8.34559C45.9698 3.75011 39.7877 0.874573 33.1852 0.169575C27.0262 -0.488071 20.8261 0.777687 15.4305 3.77537C14.7857 4.1336 14.5912 4.95908 14.9777 5.58728C15.3643 6.21549 16.1855 6.40823 16.8319 6.05281C21.7226 3.36341 27.3306 2.23075 32.9016 2.82561C38.9162 3.46785 44.5478 6.08735 48.914 10.2737C53.2801 14.46 56.134 19.9765 57.0284 25.9588C57.9229 31.9411 56.8073 38.0511 53.8567 43.3314C50.906 48.6117 46.2868 52.7639 40.7231 55.1373C35.1594 57.5106 28.9654 57.9711 23.1119 56.4466C17.2584 54.922 12.076 51.4985 8.37698 46.7126C4.95072 42.2797 2.97635 36.9099 2.70376 31.3352C2.66774 30.5984 2.07318 30 1.33557 30Z" fill="#EFF1F7"/>
</svg>
