<svg width="200" height="175" viewBox="0 0 200 175" fill="none" xmlns="http://www.w3.org/2000/svg">
<path d="M200 87.5C200.012 97.0679 198.228 106.573 194.719 115.635C194.518 116.152 194.312 116.668 194.101 117.183C190.384 126.175 185.01 134.575 178.192 142.048C176.157 144.282 174 146.424 171.722 148.473C169.444 150.526 167.052 152.479 164.547 154.331C150.575 164.699 133.602 171.49 115.5 173.954H115.497C113.189 174.267 110.859 174.512 108.506 174.687C105.704 174.894 102.869 174.998 100 175C86.6589 175.015 73.4501 172.687 61.1562 168.154C48.8622 163.62 37.7334 156.973 28.429 148.608C27.7752 148.022 27.1312 147.429 26.4971 146.826C24.9172 145.328 23.3975 143.782 21.9379 142.19C21.1184 141.294 20.3186 140.385 19.5385 139.461C14.7335 133.781 10.7357 127.611 7.63316 121.086C6.31008 118.308 5.15465 115.47 4.17163 112.585C4.10062 112.381 4.03257 112.176 3.96452 111.971C3.8166 111.531 3.6736 111.089 3.53554 110.643C1.18202 103.102 -0.00703989 95.3179 3.13534e-05 87.5C3.13534e-05 39.1756 44.7722 0 100 0C155.228 0 200 39.1756 200 87.5Z" fill="white" fill-opacity="0.4"/>
<path d="M42.624 52.0577C42.4687 52.8799 42.522 53.7217 42.7801 54.5239C43.0382 55.3261 43.4948 56.0691 44.1177 56.7008C44.7405 57.3324 45.5146 57.8372 46.3853 58.1796C47.2561 58.522 48.2023 58.6938 49.1573 58.6827L65.1612 99.3055L75.3729 93.1833L55.66 52.4973C55.5322 51.0989 54.821 49.79 53.6609 48.8185C52.5008 47.8471 50.9726 47.2806 49.3657 47.2264C47.7589 47.1723 46.1851 47.6342 44.9425 48.5246C43.7 49.415 42.875 50.6722 42.624 52.0577Z" fill="#FBC5A9"/>
<path d="M125.373 66.0352C118.305 73.0715 100.878 85.4714 86.521 94.0099C83.4178 95.8554 80.4562 97.5177 77.7749 98.909C75.9637 99.8485 74.2794 100.662 72.7632 101.325C71.7455 101.769 70.6342 102.023 69.4988 102.074C68.3633 102.124 67.2282 101.969 66.1646 101.617C65.101 101.266 64.1317 100.726 63.3175 100.032C62.5033 99.3376 61.8618 98.5036 61.433 97.5822L51.4922 76.538L54.9317 74.5427L63.4123 69.6205L65.3385 68.5054L73.2912 85.0791L81.6775 79.1888L86.8839 75.5313L110.618 58.8647L112.665 58.333L117.441 62.4113L120.818 65.297L123.995 65.7797C124.47 65.8519 124.93 65.9371 125.373 66.0352Z" fill="#636BC1"/>
<path d="M188.814 124.276C189.297 124.805 189.798 125.331 190.299 125.86C188.574 128.913 186.634 131.873 184.491 134.723C184.332 134.625 184.172 134.528 184.013 134.431C183.988 134.419 183.964 134.405 183.941 134.391C183.347 134.026 182.751 133.667 182.157 133.303V133.3C181.668 131.864 181.394 130.38 181.344 128.884C181.65 128.824 181.927 128.683 182.138 128.483C182.348 128.282 182.482 128.03 182.521 127.761C182.56 127.493 182.502 127.22 182.355 126.981C182.208 126.742 181.979 126.547 181.7 126.424C181.622 126.307 181.567 126.222 181.489 126.102C181.491 126.072 181.497 126.04 181.5 126.01C181.955 122.893 186.564 121.805 188.814 124.276Z" fill="white"/>
<path d="M194.524 113.182C194.883 114.045 195.211 114.917 195.506 115.798C195.302 116.321 195.094 116.842 194.88 117.361C194.8 117.087 194.716 116.813 194.629 116.538C194.142 115.012 193.558 113.511 192.878 112.043C192.322 110.838 191.705 109.658 191.029 108.504C187.351 102.232 182.022 96.8127 175.479 92.6905C172.776 92.1443 170.328 90.8872 168.468 89.0887C167.797 88.4425 167.235 87.7154 166.801 86.9298C167.076 86.8958 167.352 86.8488 167.621 86.7991C167.705 86.7834 167.792 86.7651 167.875 86.7495L167.908 86.7442C168.203 86.6846 168.471 86.5519 168.681 86.3622C168.891 86.1725 169.034 85.9338 169.093 85.6748C169.151 85.4158 169.123 85.1475 169.011 84.9023C168.899 84.6571 168.708 84.4454 168.462 84.2926C168.309 84.1958 168.154 84.1018 168.001 84.0077C167.768 83.8587 167.531 83.7176 167.295 83.5712C167.27 83.5576 167.246 83.5428 167.223 83.5267C166.954 83.3595 166.684 83.1974 166.418 83.0275C166.625 82.4451 166.982 81.9121 167.462 81.4697C169.135 79.9616 172.122 79.9956 174.073 81.2241C176.027 82.4525 177.009 84.6036 177.134 86.6998C177.245 88.4954 176.802 90.2728 176.219 92.0057C176.365 92.0998 176.518 92.1886 176.665 92.2853C179.359 94.0293 181.851 95.9999 184.104 98.1689C182.802 95.4715 182.33 91.9534 182.668 89.5305C183.054 86.7704 184.589 84.1488 185.846 81.5377C187.351 78.4012 192.486 78.3594 193.935 81.5168C193.95 81.5482 193.965 81.5769 193.977 81.6083C193.734 81.82 193.501 82.0395 193.276 82.2669C192.995 82.5535 192.818 82.9076 192.771 83.2831C192.723 83.6585 192.807 84.0377 193.01 84.3711C193.214 84.7044 193.528 84.9763 193.911 85.1512C194.294 85.326 194.729 85.3957 195.159 85.3511L195.204 85.3459C195.39 86.2777 195.496 87.2204 195.521 88.1661C195.558 90.8119 194.969 93.436 193.791 95.8737C192.612 98.3114 190.87 100.51 188.674 102.333C188.53 102.45 188.389 102.565 188.243 102.678C189.629 104.399 190.874 106.205 191.969 108.08C192.94 109.733 193.794 111.437 194.524 113.182Z" fill="white"/>
<path d="M137.3 88.6777L136.406 142.361L64.1787 140.549L75.7132 118.29C75.6303 117.576 80.7758 112.562 80.7462 111.819C80.6574 109.643 82.5167 107.626 82.8187 105.349C83.4345 100.651 79.9084 82.9111 81.5338 79.2461C82.2262 77.6096 83.1133 76.0411 84.1805 74.5666C85.1043 73.3449 86.0517 72.5218 86.9576 72.2242L89.628 66.7837L91.9965 63.6778L110.58 58.8662L112.635 58.333L117.428 62.4225L120.818 65.3161L124.007 65.8001C124.483 65.8726 124.945 65.958 125.389 66.0564C127.528 66.4876 129.522 67.351 131.21 68.5773C136.776 72.7108 137.424 80.4859 137.3 88.6777Z" fill="#636BC1"/>
<path d="M179.104 141.667C177.072 144.032 174.919 146.299 172.645 148.469L164.855 148.474L122.958 148.518L115.415 148.526L110.401 148.532L102.941 148.537L97.2029 148.543L86.6039 148.554L80.352 148.562L67.1866 148.573L60.9022 148.581L43.4872 148.598L32.5486 148.609L29.6131 148.611C28.9604 147.992 28.3176 147.364 27.6847 146.726C26.1077 145.139 24.5907 143.503 23.1338 141.818L29.2115 141.812L33.3519 141.809L42.9379 141.799L61.4368 141.782L67.6887 141.777L70.2166 141.774H70.2255L72.21 141.771L73.0989 141.768L75.3758 141.766H76.3386L83.0896 141.76L97.6518 141.744L104.06 141.738L110.197 141.733L115.95 141.727L124.204 141.719L168.289 141.678L179.104 141.667Z" fill="#CCCCCC"/>
<path d="M79.1871 61.0231L79.1711 61.0244C78.3204 61.0938 77.473 60.8641 76.8155 60.3858C76.1579 59.9076 75.744 59.2199 75.6649 58.4742L73.9878 42.7829C73.6842 39.9719 74.0286 37.1361 75.0003 34.4441C76.905 29.1901 81.0492 24.783 86.5693 22.1414C89.4196 20.781 92.5546 19.9406 95.7853 19.6707C109.003 18.5669 113.833 20.98 121.998 38.6507C130.162 56.3214 123.677 54.3658 123.677 54.3658C123.718 54.744 123.672 55.1255 123.541 55.4876C123.284 56.1941 122.725 56.7862 121.982 57.1403C121.601 57.3215 121.182 57.4338 120.75 57.4703C105.124 60.952 89.357 64.6169 79.1845 61.0233L79.1871 61.0231Z" fill="#2F2E41"/>
<path d="M108.18 34.6039C110.125 37.1678 111.174 40.1878 111.193 43.2823C111.213 46.3768 110.203 49.4072 108.291 51.9906C106.378 54.574 103.65 56.5946 100.449 57.7972C97.2484 58.9998 93.7196 59.3305 90.3082 58.7474C88.0499 58.368 85.8987 57.5931 83.979 56.4677C82.0593 55.3423 80.4094 53.8887 79.1248 52.1911C77.1838 49.628 76.138 46.6104 76.1194 43.5185C76.1008 40.4267 77.1101 37.3992 79.0201 34.8178C80.9302 32.2363 83.6554 30.2164 86.8522 29.0128C90.049 27.8092 93.5742 27.4758 96.9834 28.0546C99.2434 28.4318 101.397 29.205 103.319 30.3293C105.241 31.4537 106.893 32.9068 108.18 34.6045L108.18 34.6039Z" fill="#FBC5A9"/>
<path d="M68.7395 44.6366C68.5031 42.4627 68.7715 40.2697 69.5286 38.1879C69.7041 33.0952 71.4025 28.4824 78.542 28.6761C80.7489 27.6316 83.1748 26.9839 85.6753 26.7717L89.2034 26.4686C89.243 26.4652 89.2826 26.4619 89.3223 26.4587C91.7666 26.2607 94.2318 26.4836 96.5772 27.1146C98.9225 27.7455 101.102 28.7722 102.991 30.136C104.881 31.4998 106.443 33.1739 107.588 35.0629C108.734 36.9519 109.44 39.0187 109.668 41.1453L109.701 41.4526L102.237 42.0874L99.0241 36.1064L99.1826 42.3485L95.3274 42.6776L93.7074 39.6601L93.7865 42.8073C88.0624 47.1933 79.3824 47.4232 68.7759 44.9442L68.7395 44.6366Z" fill="#2F2E41"/>
<path d="M92.7593 60.0288C92.6955 60.5522 92.7968 61.0813 93.0516 61.5557C93.18 61.7987 93.3457 62.0243 93.544 62.2261C93.7136 62.3979 93.9052 62.5511 94.115 62.6825C94.7361 63.0704 95.491 63.2471 96.2442 63.1808C96.2912 63.1765 96.338 63.1713 96.3847 63.1654C96.4315 63.1595 96.4781 63.1526 96.5247 63.1448C96.5717 63.1372 96.6184 63.1285 96.6647 63.1187C96.7111 63.1088 96.7576 63.0982 96.8042 63.0867L99.421 62.4291L102.354 55.0951L103.026 61.5306L114.925 58.5593L112.073 31.25L91.791 33.0423L92.3472 33.5227C94.1954 35.136 95.5114 37.1754 96.1504 39.4163C96.7847 41.6872 96.9805 44.0387 96.7293 46.3688C96.4946 48.725 96.0082 51.0555 95.2768 53.3283C94.6401 55.3408 93.8747 57.3187 92.9843 59.2523C92.8692 59.5004 92.7934 59.7618 92.7593 60.0288Z" fill="#2F2E41"/>
<path d="M95.3559 144.749C95.0013 144.749 94.6512 144.679 94.3309 144.545L37.1927 145.833C36.7543 145.65 36.3891 145.353 36.1455 144.982C35.9019 144.611 35.7913 144.183 35.8283 143.756C35.8652 143.328 36.0481 142.921 36.3526 142.587C36.6572 142.253 37.0691 142.009 37.5341 141.886L74.9154 132.033C75.3026 131.931 75.7126 131.917 76.1074 131.992L133.93 138.223C134.442 138.32 134.903 138.563 135.244 138.915C135.585 139.266 135.786 139.706 135.817 140.168C135.848 140.63 135.707 141.089 135.416 141.473C135.125 141.858 134.7 142.148 134.205 142.299L96.1389 144.633C95.887 144.71 95.6224 144.749 95.3559 144.749Z" fill="#191847"/>
<path d="M97.7117 141.264C97.4547 141.264 97.202 141.204 96.9777 141.09L50.7652 143.056C50.5028 142.922 50.2908 142.719 50.1568 142.474C50.0228 142.228 49.973 141.952 50.0139 141.681C50.0549 141.409 50.1846 141.155 50.3863 140.952C50.5879 140.749 50.8521 140.605 51.1445 140.541L67.8745 136.844C68.1356 136.787 68.4088 136.794 68.6658 136.865L111.627 136.818C111.933 136.903 112.201 137.075 112.391 137.309C112.582 137.543 112.685 137.826 112.687 138.118C112.688 138.409 112.586 138.693 112.398 138.928C112.209 139.163 111.942 139.336 111.637 139.424L98.1586 141.202C98.0139 141.243 97.8632 141.264 97.7117 141.264Z" fill="#2F2E41"/>
<path d="M92.5728 139.342C93.3689 139.807 94.268 140.108 95.2065 140.224C96.145 140.34 97.1003 140.268 98.0049 140.014C98.9096 139.76 99.7416 139.329 100.443 138.753C101.143 138.176 101.696 137.467 102.062 136.677L150.747 140.137L148.393 129.223L98.1778 128.79C96.669 128.323 95.0231 128.372 93.5519 128.929C92.0808 129.487 90.8867 130.513 90.1958 131.813C89.5049 133.114 89.3653 134.599 89.8034 135.987C90.2415 137.374 91.2269 138.568 92.5728 139.342Z" fill="#FBC5A9"/>
<path d="M121.355 70.1781C121.355 70.1781 128.718 65.0226 137.553 74.3025C143.511 80.5607 155.005 118.393 155.958 134.071C156.018 135.063 155.844 136.055 155.445 136.985C155.047 137.915 154.434 138.763 153.643 139.476C152.853 140.189 151.903 140.752 150.853 141.128C149.802 141.505 148.674 141.688 147.54 141.665L121.561 141.269L118.656 126.975L139.167 127.188L121.355 70.1781Z" fill="#636BC1"/>
<path d="M91.8923 145.239C90.9985 145.238 90.1139 145.081 89.2902 144.775L36.5869 145.833C35.196 145.323 34.0413 144.415 33.3097 143.255C32.5781 142.096 32.3122 140.754 32.555 139.445L30.5967 98.7208C30.8564 97.2661 31.7266 95.95 33.0354 95.0324C34.3442 94.1147 35.9965 93.6622 37.666 93.7641L86.595 95.5497C87.5342 95.6039 88.45 95.8311 89.283 96.2168C90.1159 96.6024 90.8475 97.1378 91.4301 97.7882C92.0128 98.4385 92.4335 99.1894 92.6651 99.9921C92.8968 100.795 92.934 101.631 92.7745 102.448L98.5071 140.328C98.2375 141.701 97.4264 142.946 96.2165 143.844C95.0066 144.742 93.4754 145.236 91.8923 145.239Z" fill="#191847"/>
<path d="M52.2312 24.3595L29.9518 24.3057C29.3546 24.3051 28.7815 24.5072 28.3581 24.8678C27.9347 25.2284 27.6955 25.718 27.6931 26.2293L27.6123 51.4872C27.611 51.998 27.8467 52.4883 28.2674 52.8505C28.6881 53.2126 29.2595 53.4169 29.8561 53.4185L42.2149 53.4493L52.1384 53.4723C52.7355 53.4733 53.3085 53.2711 53.7315 52.9104C54.1546 52.5497 54.3929 52.0599 54.3942 51.5487L54.4002 50.0554L54.478 26.2933C54.4792 25.7819 54.2432 25.2909 53.822 24.9283C53.4007 24.5658 52.8285 24.3611 52.2312 24.3595Z" fill="#E6E6E6"/>
<path d="M50.9073 25.7409L31.9932 25.6943C31.4409 25.6937 30.9108 25.8848 30.5192 26.2256C30.1275 26.5664 29.9062 27.0292 29.9038 27.5126L29.8506 43.9102C29.8469 46.0637 30.8193 48.1305 32.5545 49.6573C34.2897 51.1842 36.6461 52.0464 39.1067 52.0548L42.7004 52.0625L50.8246 52.0832C51.377 52.0843 51.9074 51.8934 52.2992 51.5525C52.6909 51.2115 52.9121 50.7485 52.914 50.265L52.9199 48.6149L52.9849 27.5695C52.9861 27.086 52.768 26.6218 52.3784 26.279C51.9889 25.9361 51.4598 25.7426 50.9073 25.7409Z" fill="white"/>
<path d="M48.3741 36.8057H33.7157C33.6002 36.8057 33.4858 36.8236 33.379 36.8585C33.2723 36.8934 33.1753 36.9446 33.0936 37.0091C33.0119 37.0735 32.9471 37.1501 32.9029 37.2344C32.8587 37.3186 32.8359 37.4089 32.8359 37.5001C32.8359 37.5913 32.8587 37.6816 32.9029 37.7659C32.9471 37.8501 33.0119 37.9267 33.0936 37.9912C33.1753 38.0556 33.2723 38.1068 33.379 38.1417C33.4858 38.1766 33.6002 38.1946 33.7157 38.1946H48.3741C48.6074 38.1946 48.8312 38.1214 48.9962 37.9912C49.1612 37.8609 49.2538 37.6843 49.2538 37.5001C49.2538 37.3159 49.1612 37.1393 48.9962 37.0091C48.8312 36.8788 48.6074 36.8057 48.3741 36.8057Z" fill="#636BC1"/>
<path d="M37.1373 32.6387H33.7584C33.5138 32.6387 33.2791 32.7118 33.1061 32.8421C32.9331 32.9723 32.8359 33.1489 32.8359 33.3331C32.8359 33.5173 32.9331 33.6939 33.1061 33.8242C33.2791 33.9544 33.5138 34.0276 33.7584 34.0276H37.1373C37.382 34.0276 37.6166 33.9544 37.7896 33.8242C37.9626 33.6939 38.0598 33.5173 38.0598 33.3331C38.0598 33.1489 37.9626 32.9723 37.7896 32.8421C37.6166 32.7118 37.382 32.6387 37.1373 32.6387Z" fill="#636BC1"/>
<path d="M48.3741 43.75H33.7157C33.4824 43.75 33.2586 43.8232 33.0936 43.9534C32.9286 44.0836 32.8359 44.2603 32.8359 44.4444C32.8359 44.6286 32.9286 44.8053 33.0936 44.9355C33.2586 45.0657 33.4824 45.1389 33.7157 45.1389H48.3741C48.6074 45.1389 48.8312 45.0657 48.9962 44.9355C49.1612 44.8053 49.2538 44.6286 49.2538 44.4444C49.2538 44.2603 49.1612 44.0836 48.9962 43.9534C48.8312 43.8232 48.6074 43.75 48.3741 43.75Z" fill="#636BC1"/>
<path d="M48.3754 40.2778H33.7144C33.4814 40.2778 33.258 40.351 33.0932 40.4812C32.9285 40.6115 32.8359 40.7881 32.8359 40.9723C32.8359 41.1565 32.9285 41.3331 33.0932 41.4633C33.258 41.5936 33.4814 41.6667 33.7144 41.6667H48.3754C48.6084 41.6667 48.8318 41.5936 48.9966 41.4633C49.1613 41.3331 49.2538 41.1565 49.2538 40.9723C49.2538 40.7881 49.1613 40.6115 48.9966 40.4812C48.8318 40.351 48.6084 40.2778 48.3754 40.2778Z" fill="#636BC1"/>
<path d="M45.5227 35.4164C44.4895 35.4164 43.4795 35.1517 42.6205 34.6557C41.7614 34.1597 41.0919 33.4548 40.6965 32.63C40.3011 31.8052 40.1976 30.8976 40.3992 30.0219C40.6008 29.1463 41.0983 28.342 41.8289 27.7108C42.5594 27.0795 43.4902 26.6496 44.5036 26.4754C45.5169 26.3012 46.5673 26.3906 47.5218 26.7323C48.4763 27.0739 49.2922 27.6525 49.8662 28.3948C50.4402 29.1371 50.7466 30.0098 50.7466 30.9026C50.745 32.0993 50.1941 33.2466 49.2148 34.0929C48.2355 34.9391 46.9077 35.4151 45.5227 35.4164ZM45.5227 26.7024C44.5613 26.7024 43.6215 26.9487 42.8222 27.4102C42.0228 27.8717 41.3998 28.5277 41.0319 29.2952C40.6639 30.0627 40.5677 30.9072 40.7552 31.722C40.9428 32.5367 41.4057 33.2851 42.0855 33.8725C42.7653 34.46 43.6315 34.86 44.5744 35.0221C45.5173 35.1841 46.4946 35.101 47.3829 34.783C48.2711 34.4651 49.0302 33.9268 49.5643 33.2361C50.0985 32.5454 50.3835 31.7333 50.3835 30.9026C50.3821 29.789 49.8695 28.7214 48.9582 27.934C48.047 27.1466 46.8114 26.7036 45.5227 26.7024Z" fill="#636BC1"/>
<path d="M47.756 32.2314C47.3947 30.6693 46.6423 29.1891 45.5483 27.8882C45.5236 27.8545 45.489 27.8266 45.4478 27.8073C45.4066 27.788 45.3602 27.7778 45.313 27.7778C45.2657 27.7778 45.2193 27.788 45.1781 27.8073C45.1369 27.8266 45.1023 27.8545 45.0776 27.8882C44.1248 29.2839 43.5158 30.8254 43.2865 32.4216C43.2442 32.7127 43.7897 32.7101 43.8317 32.4216C43.9083 31.9044 44.0277 31.3921 44.1891 30.8887C44.21 30.8853 44.2304 30.88 44.25 30.8731C44.975 30.5683 45.794 30.4566 46.5969 30.553C46.6039 30.5539 46.6107 30.5526 46.6177 30.5532C46.8828 31.1373 47.0878 31.7394 47.2303 32.3528C47.2968 32.641 47.8224 32.5189 47.756 32.2314ZM44.3854 30.3288C44.6356 29.6786 44.9542 29.0483 45.3374 28.4452C45.7429 28.9642 46.0951 29.511 46.39 30.08C45.708 30.037 45.0232 30.122 44.3854 30.3288Z" fill="#636BC1"/>
</svg>
