<svg width="24" height="24" viewBox="0 0 24 24" fill="none" xmlns="http://www.w3.org/2000/svg">
<path d="M6.62488 10.79C8.06488 13.62 10.3849 15.93 13.2149 17.38L15.4149 15.18C15.6849 14.91 16.0849 14.82 16.4349 14.94C17.5549 15.31 18.7649 15.51 20.0049 15.51C20.5549 15.51 21.0049 15.96 21.0049 16.51V20C21.0049 20.55 20.5549 21 20.0049 21C10.6149 21 3.00488 13.39 3.00488 4C3.00488 3.45 3.45488 3 4.00488 3H7.50488C8.05488 3 8.50488 3.45 8.50488 4C8.50488 5.25 8.70488 6.45 9.07488 7.57C9.18488 7.92 9.10488 8.31 8.82488 8.59L6.62488 10.79Z" fill="white"/>
</svg>
